<svg width="40" height="41" viewBox="0 0 40 41" fill="none" xmlns="http://www.w3.org/2000/svg">
<path fill-rule="evenodd" clip-rule="evenodd" d="M25.5554 19.8082H21.111V15.3638C21.111 14.9193 20.8147 14.623 20.3703 14.623C19.9258 14.623 19.6295 14.9193 19.6295 15.3638V19.8082H15.1851C14.7406 19.8082 14.4443 20.1045 14.4443 20.549C14.4443 20.9934 14.7406 21.2897 15.1851 21.2897H19.6295V25.7342C19.6295 26.1786 19.9258 26.4749 20.3703 26.4749C20.8147 26.4749 21.111 26.1786 21.111 25.7342V21.2897H25.5554C25.9999 21.2897 26.2962 20.9934 26.2962 20.549C26.2962 20.1045 25.9999 19.8082 25.5554 19.8082Z" fill="#A3A3A3"/>
<path d="M20 40.9199C8.96296 40.9199 0 31.957 0 20.9199C0 9.88288 8.96296 0.919922 20 0.919922C31.037 0.919922 40 9.88288 40 20.9199C40 31.957 31.037 40.9199 20 40.9199ZM20 2.4014C9.77778 2.4014 1.48148 10.6977 1.48148 20.9199C1.48148 31.1421 9.77778 39.4384 20 39.4384C30.2222 39.4384 38.5185 31.1421 38.5185 20.9199C38.5185 10.6977 30.2222 2.4014 20 2.4014Z" fill="#A3A3A3"/>
</svg>
