<?xml version="1.0" encoding="utf-8"?>
<!-- Generator: Adobe Illustrator 23.0.2, SVG Export Plug-In . SVG Version: 6.00 Build 0)  -->
<svg version="1.1" baseProfile="tiny" id="Layer_1" xmlns="http://www.w3.org/2000/svg" xmlns:xlink="http://www.w3.org/1999/xlink"
	 x="0px" y="0px" width="367px" height="57px" viewBox="0 0 367 57" xml:space="preserve">
<path fill="#FFFFFF" stroke="#929497" stroke-width="0.351" stroke-miterlimit="10" d="M61.16,57h290.58h-2.19h10.34
	c3.95,0,7.15-3.2,7.15-7.15V7.15c0-3.95-3.2-7.15-7.15-7.15h-10.34h2.19H61.58h2.16H0.19v29.03c0,6.19,4.85,11.28,11.04,11.6
	l1.61,0.08C15.01,50.04,23.38,57,33.35,57c0.02,0,0.03,0,0.03,0l0.01,0h30.2"/>
<g>
	<path fill="#5FC323" d="M6.18,5.98V29c0,3.66,2.87,6.61,6.48,6.8c-0.19-9.89,6.82-18.74,16.86-20.51c1.18-0.21,2.37-0.32,3.57-0.32
		c9.93,0,18.38,7.11,20.11,16.89c0.23,1.33,0.32,2.64,0.3,3.94c3.6-0.2,6.47-3.15,6.47-6.8V5.98H6.18z"/>
	<path d="M26.52,35.4c0-3.64,2.95-6.58,6.59-6.58c3.64,0,6.58,2.95,6.58,6.58H26.52z M17.42,35.41c0,8.61,7.01,15.61,15.61,15.61
		c4.18,0,8.11-1.63,11.06-4.6l-3.18-3.16c-2.1,2.12-4.9,3.28-7.88,3.28c-6.14,0-11.12-4.99-11.12-11.12
		c0-6.13,4.98-11.12,11.12-11.12c6.14,0,11.12,4.99,11.12,11.12h4.49c0-8.6-7-15.6-15.6-15.6C24.44,19.8,17.42,26.81,17.42,35.41"/>
</g>
<g>
	<path fill="#004676" d="M157.23,43.66v8.05h-0.93v-7.18h-3.36v7.18h-0.93v-8.05H157.23z"/>
	<path fill="#004676" d="M158.83,47.82c0-0.74-0.02-1.34-0.04-1.89h0.85l0.04,0.99h0.02c0.39-0.71,1-1.12,1.85-1.12
		c1.26,0,2.2,1.18,2.2,2.94c0,2.08-1.14,3.11-2.36,3.11c-0.69,0-1.29-0.33-1.6-0.91h-0.02v3.14h-0.93V47.82z M159.76,49.36
		c0,0.16,0.02,0.3,0.04,0.43c0.17,0.73,0.74,1.23,1.42,1.23c1,0,1.58-0.91,1.58-2.23c0-1.16-0.55-2.15-1.55-2.15
		c-0.64,0-1.25,0.51-1.43,1.3c-0.03,0.13-0.06,0.29-0.06,0.43V49.36z"/>
	<path fill="#004676" d="M165.47,49.01c0.02,1.42,0.84,2.01,1.78,2.01c0.68,0,1.08-0.13,1.44-0.3l0.16,0.75
		c-0.33,0.17-0.9,0.36-1.73,0.36c-1.6,0-2.56-1.17-2.56-2.92s0.92-3.12,2.44-3.12c1.7,0,2.15,1.66,2.15,2.72
		c0,0.22-0.02,0.38-0.03,0.49H165.47z M168.24,48.26c0.01-0.67-0.25-1.71-1.31-1.71c-0.96,0-1.38,0.98-1.45,1.71H168.24z"/>
	<path fill="#004676" d="M174.39,45.93v4.99l0.54,0.01l-0.05,2.62h-0.74l-0.04-1.84h-3.6l-0.04,1.84h-0.74l-0.04-2.62l0.44-0.01
		c0.23-0.37,0.4-0.76,0.52-1.18c0.2-0.72,0.3-1.49,0.3-2.31v-1.5H174.39z M171.76,47.69c0,0.76-0.1,1.51-0.27,2.15
		c-0.11,0.39-0.26,0.75-0.42,1.08h2.4v-4.18h-1.71V47.69z"/>
	<path fill="#004676" d="M179.72,51.5c-0.25,0.14-0.79,0.33-1.49,0.33c-1.57,0-2.59-1.18-2.59-2.95c0-1.78,1.1-3.07,2.79-3.07
		c0.56,0,1.05,0.16,1.31,0.3l-0.21,0.81c-0.23-0.14-0.58-0.27-1.1-0.27c-1.19,0-1.84,0.98-1.84,2.19c0,1.34,0.77,2.16,1.8,2.16
		c0.54,0,0.89-0.16,1.16-0.29L179.72,51.5z"/>
	<path fill="#004676" d="M184.51,45.93v0.84h-1.62v4.95h-0.93v-4.95h-1.62v-0.84H184.51z"/>
	<path fill="#004676" d="M188.14,51.71l-0.08-0.73h-0.03c-0.29,0.45-0.85,0.86-1.59,0.86c-1.05,0-1.59-0.83-1.59-1.66
		c0-1.4,1.12-2.16,3.13-2.15v-0.12c0-0.48-0.12-1.34-1.18-1.34c-0.48,0-0.99,0.17-1.35,0.43l-0.21-0.69
		c0.43-0.31,1.05-0.51,1.71-0.51c1.59,0,1.98,1.21,1.98,2.37v2.16c0,0.5,0.02,0.99,0.09,1.39H188.14z M188,48.76
		c-1.03-0.02-2.2,0.18-2.2,1.3c0,0.68,0.41,1,0.89,1c0.68,0,1.11-0.48,1.26-0.97c0.03-0.11,0.05-0.23,0.05-0.33V48.76z"/>
	<path fill="#004676" d="M190.42,46c0.37-0.07,1.04-0.13,1.65-0.13c0.87,0,2.31,0.16,2.31,1.45c0,0.72-0.49,1.16-1.08,1.3v0.02
		c0.76,0.12,1.32,0.6,1.32,1.43c0,1.52-1.72,1.71-2.74,1.71c-0.58,0-1.18-0.05-1.46-0.07V46z M191.31,51.02
		c0.27,0.04,0.46,0.05,0.76,0.05c0.63,0,1.58-0.17,1.58-1c0-0.84-0.75-1.02-1.65-1.02h-0.69V51.02z M191.32,48.36h0.71
		c0.7,0,1.42-0.23,1.42-0.91c0-0.57-0.45-0.85-1.4-0.85c-0.31,0-0.5,0.02-0.73,0.05V48.36z"/>
	<path fill="#004676" d="M199.79,45.93v5.78h-0.93v-4.96h-1.78v1.5c0,1.62-0.14,2.71-0.82,3.2c-0.26,0.23-0.55,0.36-1.03,0.36
		l-0.1-0.82c0.18-0.04,0.39-0.12,0.52-0.24c0.48-0.39,0.54-1.21,0.54-2.5v-2.33H199.79z"/>
	<path fill="#004676" d="M201.87,49.01c0.02,1.42,0.84,2.01,1.78,2.01c0.68,0,1.08-0.13,1.44-0.3l0.16,0.75
		c-0.33,0.17-0.9,0.36-1.73,0.36c-1.6,0-2.56-1.17-2.56-2.92s0.92-3.12,2.44-3.12c1.7,0,2.15,1.66,2.15,2.72
		c0,0.22-0.02,0.38-0.03,0.49H201.87z M204.64,48.26c0.01-0.67-0.25-1.71-1.31-1.71c-0.96,0-1.38,0.98-1.45,1.71H204.64z"/>
	<path fill="#004676" d="M207.64,45.93v2.33h2.47v-2.33h0.93v5.78h-0.93V49.1h-2.47v2.62h-0.93v-5.78H207.64z"/>
	<path fill="#004676" d="M217.3,48.77c0,2.14-1.33,3.07-2.59,3.07c-1.41,0-2.49-1.15-2.49-2.98c0-1.94,1.14-3.07,2.58-3.07
		C216.29,45.8,217.3,47.01,217.3,48.77z M213.17,48.83c0,1.27,0.66,2.22,1.58,2.22c0.9,0,1.58-0.94,1.58-2.25
		c0-0.98-0.44-2.22-1.56-2.22S213.17,47.73,213.17,48.83z"/>
</g>
<g>
	<g>
		<path d="M183.08,8.66v10.76h-2.97V8.66h-4.11V5.92h11.18v2.74H183.08z"/>
		<path d="M196.88,19.42l-2.89-4.32h-2.33v4.32h-2.97V5.92h6.16c3.19,0,5.09,1.68,5.09,4.45v0.04c0,2.18-1.17,3.55-2.89,4.18
			l3.3,4.82H196.88z M196.94,10.53c0-1.27-0.89-1.93-2.33-1.93h-2.95v3.88h3c1.45,0,2.28-0.77,2.28-1.91V10.53z"/>
		<path d="M207.86,19.63c-3.63,0-5.84-2.02-5.84-6V5.92h2.97v7.63c0,2.2,1.1,3.33,2.91,3.33c1.81,0,2.91-1.1,2.91-3.24V5.92h2.97
			v7.61C213.78,17.62,211.49,19.63,207.86,19.63z"/>
		<path d="M221.23,19.61c-2.05,0-4.11-0.71-5.73-2.16l1.75-2.1c1.21,1,2.49,1.64,4.03,1.64c1.21,0,1.95-0.48,1.95-1.27v-0.04
			c0-0.75-0.46-1.14-2.72-1.71c-2.72-0.69-4.47-1.45-4.47-4.13V9.8c0-2.45,1.96-4.07,4.72-4.07c1.97,0,3.64,0.62,5.01,1.72
			l-1.54,2.23c-1.19-0.83-2.37-1.33-3.51-1.33c-1.13,0-1.73,0.52-1.73,1.18v0.04c0,0.89,0.58,1.18,2.91,1.77
			c2.73,0.71,4.27,1.7,4.27,4.05v0.04C226.17,18.11,224.13,19.61,221.23,19.61z"/>
		<path d="M233.71,8.66v10.76h-2.97V8.66h-4.11V5.92h11.18v2.74H233.71z"/>
		<path d="M247.07,15.27h-7.19c0.29,1.33,1.22,2.02,2.53,2.02c0.98,0,1.7-0.31,2.51-1.06l1.67,1.48c-0.96,1.2-2.35,1.93-4.22,1.93
			c-3.1,0-5.4-2.18-5.4-5.34v-0.04c0-2.95,2.1-5.38,5.1-5.38c3.45,0,5.03,2.68,5.03,5.61v0.04C247.11,14.83,247.09,15,247.07,15.27z
			 M242.07,11.24c-1.2,0-2,0.87-2.23,2.2h4.41C244.08,12.13,243.31,11.24,242.07,11.24z"/>
	</g>
</g>
<g>
	<path fill="#004676" d="M223.84,45.25h-2.53v-1.26h6.5v1.26h-2.53v6.41h-1.45V45.25z M229.17,51.66v-4.25
		c0.24-0.14,0.61-0.22,1.04-0.22c0.29,0,0.57,0.03,0.84,0.11l0.35-1.14c-0.35-0.13-0.75-0.18-1.23-0.18c-1.06,0-1.91,0.42-2.33,0.79
		v4.89H229.17z M236.08,46.16v4.26c-0.34,0.14-0.71,0.21-1.15,0.21c-1.12,0-1.36-0.51-1.36-1.42v-3.06h-1.35v3.45
		c0,1.36,0.78,2.22,2.53,2.22c1.24,0,2.1-0.32,2.67-0.59v-5.08H236.08z M238.55,50.97c0,0,0.78,0.82,2.16,0.82
		c1.32,0,2.13-0.74,2.13-1.67c0-1.79-2.71-1.7-2.71-2.48c0-0.35,0.35-0.5,0.71-0.5c0.85,0,1.37,0.48,1.37,0.48l0.51-1.03
		c0,0-0.61-0.63-1.87-0.63c-1.2,0-2.13,0.6-2.13,1.64c0,1.79,2.71,1.68,2.71,2.52c0,0.33-0.34,0.5-0.73,0.5
		c-0.91,0-1.52-0.61-1.52-0.61L238.55,50.97z M244,49.61c0,1.87,1.54,2.1,2.32,2.1c0.26,0,0.43-0.03,0.43-0.03v-1.21
		c0,0-0.1,0.02-0.25,0.02c-0.38,0-1.1-0.13-1.1-1.05v-2.08h1.27v-1.19h-1.27v-1.61h-1.36L244,49.61z M256.42,51.66v-4.25
		c0.24-0.14,0.61-0.22,1.04-0.22c0.29,0,0.57,0.03,0.84,0.11l0.35-1.14c-0.35-0.13-0.75-0.18-1.23-0.18c-1.06,0-1.91,0.42-2.33,0.79
		v4.89H256.42z M261.77,46.05c-1.8,0-2.95,1.3-2.95,2.85c0,1.58,1.15,2.85,2.95,2.85c1.46,0,2.24-0.89,2.24-0.89l-0.52-0.96
		c0,0-0.68,0.69-1.6,0.69c-1.03,0-1.69-0.79-1.69-1.71c0-0.93,0.65-1.68,1.65-1.68c0.85,0,1.42,0.59,1.42,0.59l0.6-0.93
		C263.86,46.86,263.18,46.05,261.77,46.05 M252.18,49.67h-2.54l-0.68,1.95h-1.42l2.66-7.57h1.42l2.66,7.57h-1.42L252.18,49.67z
		 M251.79,48.55l-0.88-2.49l-0.88,2.49H251.79z"/>
</g>
<line fill="none" stroke="#231F20" stroke-width="0.5" stroke-miterlimit="10" x1="65.28" y1="40.24" x2="354.74" y2="40.23"/>
<g>
	<path d="M75.61,26.12v8.42h-1.09v-7.51h-3.91v7.51h-1.09v-8.42H75.61z"/>
	<path d="M77.48,30.47c0-0.77-0.02-1.4-0.05-1.97h0.99l0.05,1.04h0.03c0.45-0.74,1.16-1.17,2.15-1.17c1.46,0,2.56,1.24,2.56,3.07
		c0,2.17-1.32,3.25-2.75,3.25c-0.8,0-1.5-0.35-1.86-0.95h-0.02v3.29h-1.09V30.47z M78.56,32.08c0,0.16,0.02,0.31,0.05,0.45
		c0.2,0.76,0.86,1.29,1.65,1.29c1.16,0,1.84-0.95,1.84-2.34c0-1.21-0.64-2.25-1.8-2.25c-0.75,0-1.45,0.54-1.66,1.36
		c-0.04,0.14-0.07,0.3-0.07,0.45V32.08z"/>
	<path d="M90.06,31.47c0,2.24-1.55,3.21-3.01,3.21c-1.64,0-2.9-1.2-2.9-3.11c0-2.02,1.33-3.21,3-3.21
		C88.89,28.35,90.06,29.62,90.06,31.47z M85.26,31.53c0,1.32,0.76,2.32,1.84,2.32c1.05,0,1.84-0.99,1.84-2.35
		c0-1.02-0.51-2.32-1.81-2.32S85.26,30.38,85.26,31.53z"/>
	<path d="M91.43,28.57c0.42-0.08,1.21-0.14,1.92-0.14c1.01,0,2.69,0.16,2.69,1.51c0,0.75-0.58,1.21-1.26,1.36v0.02
		c0.89,0.12,1.54,0.62,1.54,1.5c0,1.59-2,1.79-3.19,1.79c-0.67,0-1.38-0.05-1.7-0.08V28.57z M92.46,33.82
		c0.31,0.04,0.54,0.05,0.89,0.05c0.74,0,1.84-0.17,1.84-1.05s-0.87-1.06-1.92-1.06h-0.8V33.82z M92.48,31.03h0.82
		c0.81,0,1.65-0.24,1.65-0.95c0-0.6-0.52-0.89-1.62-0.89c-0.36,0-0.59,0.03-0.85,0.05V31.03z"/>
	<path d="M98.31,31.72c0.03,1.49,0.97,2.1,2.08,2.1c0.79,0,1.26-0.14,1.67-0.31l0.19,0.79c-0.39,0.17-1.05,0.38-2.01,0.38
		c-1.86,0-2.97-1.22-2.97-3.05c0-1.83,1.08-3.26,2.84-3.26c1.97,0,2.5,1.74,2.5,2.85c0,0.23-0.03,0.4-0.04,0.51H98.31z
		 M101.54,30.93c0.01-0.7-0.29-1.79-1.52-1.79c-1.11,0-1.6,1.02-1.69,1.79H101.54z"/>
	<path d="M103.96,30.47c0-0.77-0.02-1.4-0.05-1.97h0.99l0.05,1.04h0.03c0.45-0.74,1.16-1.17,2.15-1.17c1.46,0,2.56,1.24,2.56,3.07
		c0,2.17-1.32,3.25-2.75,3.25c-0.8,0-1.5-0.35-1.86-0.95h-0.03v3.29h-1.09V30.47z M105.05,32.08c0,0.16,0.03,0.31,0.05,0.45
		c0.2,0.76,0.86,1.29,1.65,1.29c1.16,0,1.84-0.95,1.84-2.34c0-1.21-0.64-2.25-1.8-2.25c-0.75,0-1.45,0.54-1.66,1.36
		c-0.04,0.14-0.08,0.3-0.08,0.45V32.08z"/>
	<path d="M112.16,28.49v2.62h0.26l2.27-2.62h1.34l-2.64,2.74c0.98,0.1,1.56,0.75,2.04,1.84c0.16,0.4,0.38,0.99,0.65,1.47h-1.15
		c-0.16-0.26-0.38-0.74-0.56-1.24c-0.41-0.97-0.98-1.42-2-1.42h-0.21v2.66h-1.09v-6.05H112.16z"/>
	<path d="M120.54,34.54l-0.09-0.76h-0.04c-0.34,0.48-0.99,0.9-1.85,0.9c-1.22,0-1.85-0.86-1.85-1.74c0-1.46,1.3-2.26,3.64-2.25
		v-0.12c0-0.5-0.14-1.4-1.38-1.4c-0.56,0-1.15,0.17-1.57,0.45l-0.25-0.72c0.5-0.33,1.22-0.54,1.99-0.54c1.85,0,2.3,1.26,2.3,2.47
		v2.26c0,0.52,0.03,1.04,0.1,1.45H120.54z M120.37,31.45c-1.2-0.02-2.56,0.19-2.56,1.36c0,0.71,0.47,1.05,1.04,1.05
		c0.79,0,1.29-0.5,1.46-1.01c0.04-0.11,0.06-0.24,0.06-0.35V31.45z"/>
	<path d="M126.97,26.12v3.74h0.34l2.89-3.74h1.31l-3.19,3.86c1.39,0.19,1.92,1.04,2.36,2.17c0.31,0.86,0.55,1.64,0.92,2.39h-1.17
		c-0.3-0.58-0.54-1.32-0.76-1.99c-0.39-1.11-0.92-1.87-2.35-1.87h-0.35v3.86h-1.07v-8.42H126.97z"/>
	<path d="M138.07,31.47c0,2.24-1.55,3.21-3.01,3.21c-1.64,0-2.9-1.2-2.9-3.11c0-2.02,1.33-3.21,3-3.21
		C136.9,28.35,138.07,29.62,138.07,31.47z M133.28,31.53c0,1.32,0.76,2.32,1.84,2.32c1.05,0,1.84-0.99,1.84-2.35
		c0-1.02-0.51-2.32-1.81-2.32S133.28,30.38,133.28,31.53z"/>
	<path d="M140.53,28.49v2.44h2.87v-2.44h1.09v6.05h-1.09V31.8h-2.87v2.74h-1.09v-6.05H140.53z"/>
	<path d="M149.89,25.67v2.71c1.76,0.12,3.04,1.24,3.04,3.12c0,1.99-1.35,3.04-3.04,3.15v2.36h-1v-2.35
		c-1.75-0.11-3.04-1.21-3.04-3.1c0-2,1.34-3.05,3.04-3.19v-2.71H149.89z M148.89,29.13c-1.22,0.16-1.95,1.16-1.95,2.4
		c0,1.25,0.75,2.22,1.95,2.37V29.13z M149.89,33.9c1.21-0.16,1.95-1.16,1.95-2.4c0-1.25-0.74-2.2-1.95-2.37V33.9z"/>
	<path d="M155.31,28.49v2.55c0,0.96-0.01,1.56-0.06,2.42l0.04,0.01c0.36-0.74,0.58-1.16,0.97-1.86l1.89-3.12h1.29v6.05h-1.05v-2.56
		c0-0.99,0.02-1.5,0.08-2.47h-0.04c-0.39,0.77-0.65,1.26-1,1.87c-0.57,0.94-1.24,2.1-1.89,3.16h-1.26v-6.05H155.31z"/>
	<path d="M165.91,28.49v5.22l0.62,0.01l-0.06,2.74h-0.86l-0.05-1.92h-4.19l-0.05,1.92h-0.86l-0.05-2.74l0.51-0.01
		c0.26-0.39,0.46-0.8,0.6-1.24c0.24-0.75,0.35-1.56,0.35-2.41v-1.58H165.91z M162.85,30.33c0,0.8-0.11,1.58-0.31,2.25
		c-0.12,0.41-0.3,0.79-0.49,1.12h2.79v-4.37h-1.99V30.33z"/>
	<path d="M168.41,31.72c0.03,1.49,0.97,2.1,2.08,2.1c0.79,0,1.26-0.14,1.67-0.31l0.19,0.79c-0.39,0.17-1.05,0.38-2.01,0.38
		c-1.86,0-2.97-1.22-2.97-3.05c0-1.83,1.08-3.26,2.84-3.26c1.97,0,2.5,1.74,2.5,2.85c0,0.23-0.03,0.4-0.04,0.51H168.41z
		 M171.64,30.93c0.01-0.7-0.29-1.79-1.52-1.79c-1.11,0-1.6,1.02-1.69,1.79H171.64z"/>
	<path d="M175.12,28.49v2.44H178v-2.44h1.09v6.05H178V31.8h-2.87v2.74h-1.09v-6.05H175.12z"/>
	<path d="M181.95,28.49v5.19h2.79v-5.19h1.09v5.22l0.62,0.01l-0.06,2.74h-0.85l-0.05-1.92h-4.62v-6.05H181.95z"/>
	<path d="M188.78,28.49v2.55c0,0.96-0.01,1.56-0.06,2.42l0.04,0.01c0.36-0.74,0.58-1.16,0.97-1.86l1.89-3.12h1.29v6.05h-1.05v-2.56
		c0-0.99,0.02-1.5,0.08-2.47h-0.04c-0.39,0.77-0.65,1.26-1,1.87c-0.57,0.94-1.24,2.1-1.89,3.16h-1.26v-6.05H188.78z"/>
	<path d="M198.04,34.54l-0.09-0.76h-0.04c-0.34,0.48-0.99,0.9-1.85,0.9c-1.22,0-1.85-0.86-1.85-1.74c0-1.46,1.3-2.26,3.64-2.25
		v-0.12c0-0.5-0.14-1.4-1.38-1.4c-0.56,0-1.15,0.17-1.57,0.45l-0.25-0.72c0.5-0.33,1.22-0.54,1.99-0.54c1.85,0,2.3,1.26,2.3,2.47
		v2.26c0,0.52,0.03,1.04,0.1,1.45H198.04z M197.87,31.45c-1.2-0.02-2.56,0.19-2.56,1.36c0,0.71,0.47,1.05,1.04,1.05
		c0.79,0,1.29-0.5,1.46-1.01c0.04-0.11,0.06-0.24,0.06-0.35V31.45z"/>
	<path d="M205.32,28.49v6.05h-1.09v-5.19h-2.07v1.58c0,1.7-0.16,2.84-0.95,3.35c-0.3,0.24-0.64,0.38-1.2,0.38l-0.11-0.86
		c0.21-0.04,0.45-0.12,0.6-0.25c0.56-0.41,0.62-1.26,0.62-2.61v-2.44H205.32z"/>
	<path d="M208.19,28.49v2.05c0.25-0.05,0.67-0.06,1-0.06c1.36,0,2.8,0.42,2.8,2.04c0,0.62-0.25,1.06-0.64,1.39
		c-0.66,0.56-1.74,0.7-2.62,0.7c-0.61,0-1.17-0.04-1.62-0.09v-6.02H208.19z M208.19,33.78c0.21,0.03,0.45,0.05,0.81,0.05
		c0.82,0,1.89-0.28,1.89-1.29c0-1.05-1.1-1.27-1.91-1.27c-0.29,0-0.54,0.03-0.79,0.06V33.78z"/>
	<path d="M214.41,28.49v2.44h2.87v-2.44h1.09v6.05h-1.09V31.8h-2.87v2.74h-1.09v-6.05H214.41z"/>
	<path d="M225.65,31.47c0,2.24-1.55,3.21-3.01,3.21c-1.64,0-2.9-1.2-2.9-3.11c0-2.02,1.33-3.21,3-3.21
		C224.47,28.35,225.65,29.62,225.65,31.47z M220.85,31.53c0,1.32,0.76,2.32,1.84,2.32c1.05,0,1.84-0.99,1.84-2.35
		c0-1.02-0.51-2.32-1.81-2.32S220.85,30.38,220.85,31.53z"/>
	<path d="M231.35,34.32c-0.29,0.15-0.92,0.35-1.74,0.35c-1.82,0-3.01-1.24-3.01-3.09c0-1.86,1.28-3.21,3.25-3.21
		c0.65,0,1.23,0.16,1.53,0.31l-0.25,0.85c-0.26-0.15-0.67-0.29-1.28-0.29c-1.39,0-2.14,1.02-2.14,2.29c0,1.4,0.9,2.26,2.1,2.26
		c0.62,0,1.04-0.16,1.35-0.3L231.35,34.32z"/>
	<path d="M236.92,28.49v0.88h-1.89v5.17h-1.09v-5.17h-1.89v-0.88H236.92z"/>
	<path d="M238.9,28.49v2.55c0,0.96-0.01,1.56-0.06,2.42l0.04,0.01c0.36-0.74,0.58-1.16,0.97-1.86l1.89-3.12h1.29v6.05h-1.05v-2.56
		c0-0.99,0.02-1.5,0.08-2.47h-0.04c-0.39,0.77-0.65,1.26-1,1.87c-0.57,0.94-1.24,2.1-1.89,3.16h-1.26v-6.05H238.9z"/>
	<path d="M253.58,26.12v8.42h-1.09v-7.51h-3.91v7.51h-1.09v-8.42H253.58z"/>
	<path d="M255.45,30.47c0-0.77-0.02-1.4-0.05-1.97h0.99l0.05,1.04h0.03c0.45-0.74,1.16-1.17,2.15-1.17c1.46,0,2.56,1.24,2.56,3.07
		c0,2.17-1.32,3.25-2.75,3.25c-0.8,0-1.5-0.35-1.86-0.95h-0.02v3.29h-1.09V30.47z M256.54,32.08c0,0.16,0.02,0.31,0.05,0.45
		c0.2,0.76,0.86,1.29,1.65,1.29c1.16,0,1.84-0.95,1.84-2.34c0-1.21-0.64-2.25-1.8-2.25c-0.75,0-1.45,0.54-1.66,1.36
		c-0.04,0.14-0.07,0.3-0.07,0.45V32.08z"/>
	<path d="M268.03,31.47c0,2.24-1.55,3.21-3.01,3.21c-1.64,0-2.9-1.2-2.9-3.11c0-2.02,1.33-3.21,3-3.21
		C266.86,28.35,268.03,29.62,268.03,31.47z M263.24,31.53c0,1.32,0.76,2.32,1.84,2.32c1.05,0,1.84-0.99,1.84-2.35
		c0-1.02-0.51-2.32-1.81-2.32S263.24,30.38,263.24,31.53z"/>
	<path d="M270.44,28.49v2.55c0,0.96-0.01,1.56-0.06,2.42l0.04,0.01c0.36-0.74,0.58-1.16,0.97-1.86l1.89-3.12h1.29v6.05h-1.05v-2.56
		c0-0.99,0.02-1.5,0.08-2.47h-0.04c-0.39,0.77-0.65,1.26-1,1.87c-0.57,0.94-1.24,2.1-1.89,3.16h-1.26v-6.05H270.44z M271.15,26.03
		c0.04,0.54,0.3,0.95,0.8,0.95c0.54,0,0.79-0.4,0.85-0.95h0.79c-0.05,1.03-0.7,1.55-1.66,1.55c-1.1,0-1.53-0.69-1.58-1.55H271.15z"
		/>
	<path d="M281.03,28.49v5.22l0.62,0.01l-0.06,2.74h-0.86l-0.05-1.92h-4.19l-0.05,1.92h-0.86l-0.05-2.74l0.51-0.01
		c0.26-0.39,0.46-0.8,0.6-1.24c0.24-0.75,0.35-1.56,0.35-2.41v-1.58H281.03z M277.97,30.33c0,0.8-0.11,1.58-0.31,2.25
		c-0.12,0.41-0.3,0.79-0.49,1.12h2.79v-4.37h-1.99V30.33z"/>
	<path d="M283.53,31.72c0.03,1.49,0.97,2.1,2.08,2.1c0.79,0,1.26-0.14,1.67-0.31l0.19,0.79c-0.39,0.17-1.05,0.38-2.01,0.38
		c-1.86,0-2.97-1.22-2.97-3.05c0-1.83,1.08-3.26,2.84-3.26c1.97,0,2.5,1.74,2.5,2.85c0,0.23-0.03,0.4-0.04,0.51H283.53z
		 M286.76,30.93c0.01-0.7-0.29-1.79-1.52-1.79c-1.11,0-1.6,1.02-1.69,1.79H286.76z"/>
	<path d="M290.25,28.49v2.44h2.87v-2.44h1.09v6.05h-1.09V31.8h-2.87v2.74h-1.09v-6.05H290.25z"/>
	<path d="M299.36,34.54l-0.09-0.76h-0.04c-0.34,0.48-0.99,0.9-1.85,0.9c-1.22,0-1.85-0.86-1.85-1.74c0-1.46,1.3-2.26,3.64-2.25
		v-0.12c0-0.5-0.14-1.4-1.38-1.4c-0.56,0-1.15,0.17-1.57,0.45l-0.25-0.72c0.5-0.33,1.22-0.54,1.99-0.54c1.85,0,2.3,1.26,2.3,2.47
		v2.26c0,0.52,0.03,1.04,0.1,1.45H299.36z M299.2,31.45c-1.2-0.02-2.56,0.19-2.56,1.36c0,0.71,0.47,1.05,1.04,1.05
		c0.79,0,1.29-0.5,1.46-1.01c0.04-0.11,0.06-0.24,0.06-0.35V31.45z"/>
	<path d="M305.03,26.12l1.67,3.59c0.21,0.5,0.41,0.99,0.61,1.49h0.03c0.15-0.44,0.31-0.92,0.52-1.52l1.31-3.55h1.15l-1.76,4.32
		c-0.46,1.12-0.99,2.41-1.57,3.2c-0.55,0.69-1.16,1.04-1.91,1.04c-0.28,0-0.48-0.03-0.61-0.08l0.11-0.89
		c0.09,0.03,0.21,0.04,0.4,0.04c0.88-0.01,1.39-0.85,1.65-1.45c0.09-0.19,0.06-0.31-0.04-0.51l-2.8-5.67H305.03z"/>
	<path d="M314.85,34.32c-0.29,0.15-0.92,0.35-1.74,0.35c-1.82,0-3.01-1.24-3.01-3.09c0-1.86,1.28-3.21,3.25-3.21
		c0.65,0,1.23,0.16,1.53,0.31l-0.25,0.85c-0.26-0.15-0.67-0.29-1.28-0.29c-1.39,0-2.14,1.02-2.14,2.29c0,1.4,0.9,2.26,2.1,2.26
		c0.62,0,1.04-0.16,1.35-0.3L314.85,34.32z"/>
	<path d="M321.11,28.49v6.05h-1.1v-5.17h-2.81v5.17h-1.09v-6.05H321.11z"/>
	<path d="M323.51,31.72c0.03,1.49,0.97,2.1,2.07,2.1c0.79,0,1.26-0.14,1.67-0.31l0.19,0.79c-0.39,0.17-1.05,0.38-2.01,0.38
		c-1.86,0-2.97-1.22-2.97-3.05c0-1.83,1.08-3.26,2.84-3.26c1.97,0,2.5,1.74,2.5,2.85c0,0.23-0.03,0.4-0.04,0.51H323.51z
		 M326.74,30.93c0.01-0.7-0.29-1.79-1.52-1.79c-1.11,0-1.6,1.02-1.69,1.79H326.74z"/>
	<path d="M330.21,28.49v5.19h2.11v-5.19h1.07v5.19h2.11v-5.19h1.09v6.05h-7.46v-6.05H330.21z"/>
	<path d="M339.45,28.49v2.44h2.87v-2.44h1.09v6.05h-1.09V31.8h-2.87v2.74h-1.09v-6.05H339.45z"/>
	<path d="M350.68,31.47c0,2.24-1.55,3.21-3.01,3.21c-1.64,0-2.9-1.2-2.9-3.11c0-2.02,1.33-3.21,3-3.21
		C349.51,28.35,350.68,29.62,350.68,31.47z M345.89,31.53c0,1.32,0.76,2.32,1.84,2.32c1.05,0,1.84-0.99,1.84-2.35
		c0-1.02-0.51-2.32-1.81-2.32S345.89,30.38,345.89,31.53z"/>
</g>
<g>
</g>
<g>
</g>
<g>
</g>
<g>
</g>
<g>
</g>
<g>
</g>
</svg>
