<svg width="400" height="402" viewBox="0 0 400 402" fill="none" xmlns="http://www.w3.org/2000/svg">
<g clip-path="url(#clip0_39_202)">
<g clip-path="url(#clip1_39_202)">
<g clip-path="url(#clip2_39_202)">
<path fill-rule="evenodd" clip-rule="evenodd" d="M233.02 190.377H242.087V177.687L233.02 190.377ZM251.052 163.207V190.377H255.403V199.529H251.066V206.398H242.087V199.529H225.849C226.589 199.135 227.282 198.66 227.915 198.112C230.254 196.07 231.491 193.206 231.491 189.828C231.491 185.89 229.891 183.491 227.847 181.933L242.649 163.207H251.052ZM229.018 170.78H228.66V169.554H228.205V169.246H229.476V169.554H229.018V170.78ZM230.55 170.415L230.121 169.741L230.124 170.78H229.794V169.238H230.162L230.569 169.887L230.972 169.238H231.331V170.78H231.003V169.741L230.577 170.415H230.55ZM154.987 173.038C154.987 175.588 157.719 176.432 160.883 177.406V177.417C165.724 178.907 171.211 180.597 171.211 188.337C171.211 192.029 169.837 195.069 167.234 197.127C164.862 199.007 161.479 200.043 157.684 200.043C156.461 200.042 155.241 199.939 154.035 199.734C150.926 199.147 147.716 197.622 143.853 194.442L148.25 188.116C148.286 188.15 148.326 188.188 148.367 188.228C149.526 189.335 152.794 192.462 157.313 192.462C159.294 192.462 162.436 191.583 162.436 188.97C162.436 186.471 159.701 185.587 156.532 184.578L156.53 184.578C151.694 183.031 146.214 181.278 146.214 173.736C146.214 166.704 152.821 162.918 159.056 162.918C162.953 162.954 166.738 164.223 169.867 166.542L170.168 166.769L165.719 172.4L165.426 172.164C163.662 170.72 162.035 169.822 159.324 169.822C157.573 169.822 154.987 170.845 154.987 173.038ZM217.196 177.663C217.196 179.139 218.804 179.705 221.428 180.516H221.406C225.074 181.644 230.081 183.185 230.081 189.814C230.081 195.859 225.619 199.764 218.695 199.764C216.012 199.795 213.362 199.179 210.969 197.968L210.899 197.936L211.259 199.515H202.723L201.343 188.73L199.31 199.515H191.719L189.797 188.816L188.149 199.515H179.967L185.593 166.085H192.535L195.642 181.63L198.486 169.36H205.572L210.091 193.663L212.956 190.017L213.227 190.342C214.461 191.772 216.244 192.527 218.378 192.527C219.495 192.527 221.802 191.986 221.802 190.317C221.802 188.865 220.189 188.278 217.559 187.434C213.905 186.271 208.906 184.673 208.906 178.206C208.906 172.218 214.499 168.973 219.763 168.973C223.211 168.998 226.548 170.193 229.224 172.362L229.495 172.581L225.158 178.085L224.887 177.844C223.29 176.454 222.094 175.748 219.991 175.748C218.85 175.748 217.196 176.432 217.196 177.663ZM179.612 199.515V169.365H171.022V182.039C171.992 183.629 172.599 185.665 172.599 188.327C172.637 190.578 172.094 192.801 171.022 194.782V199.515H179.612ZM184.158 167.253C183.507 167.773 182.704 168.067 181.871 168.091H181.876C181.526 168.104 181.176 168.045 180.85 167.917C180.523 167.789 180.227 167.596 179.979 167.349C179.73 167.102 179.536 166.806 179.407 166.481C179.278 166.155 179.218 165.807 179.23 165.457C179.23 163.937 180.315 162.826 181.941 162.826C182.944 162.826 183.714 163.302 184.348 164.291L181.095 166.382C181.328 166.586 181.628 166.697 181.938 166.693C182.458 166.646 182.952 166.45 183.361 166.128L184.158 167.253ZM182.54 164.254C182.368 164.154 182.173 164.101 181.973 164.099C181.811 164.094 181.649 164.122 181.497 164.181C181.346 164.241 181.208 164.331 181.094 164.446C180.978 164.561 180.889 164.698 180.829 164.849C180.77 165.001 180.742 165.162 180.748 165.325V165.403L182.54 164.254ZM176.093 168.037H174.624L174.616 161.095H175.947V163.45C176.12 163.249 176.335 163.087 176.577 162.976C176.819 162.865 177.082 162.808 177.349 162.809C178.254 162.809 178.867 163.388 178.867 164.373V168.037H177.387V164.83C177.387 164.346 177.222 164.113 176.844 164.113C176.384 164.113 176.093 164.424 176.093 164.995V168.037ZM171.054 168.037H172.697L172.7 162.785H174.285V161.235H169.747L169.3 162.782H171.054V168.037ZM147.349 183.318L143.059 183.304L136.167 199.852L141.73 183.12L138.432 182.671L135.134 182.219L136.005 199.831L133.804 182.04L129.668 180.902L133.957 180.916L140.85 164.367L135.287 181.1L138.585 181.548L141.883 182.001L141.012 164.389L143.213 182.18L147.349 183.318ZM135.946 200.872L147.575 183.348L141.072 163.347L129.442 180.871L135.946 200.872Z" fill="white"/>
<path fill-rule="evenodd" clip-rule="evenodd" d="M255.582 209.917L129.893 206.145L138.287 231.373L255.582 228.995V209.917ZM174.109 218.182H172.31V218.179V216.653H174.724L174.325 215.311H170.888V221.794H172.31V219.479H174.109V218.182ZM178.783 215.155C179.263 215.155 179.714 215.241 180.141 215.419C180.568 215.596 180.941 215.836 181.257 216.142C181.573 216.447 181.826 216.806 182.01 217.216C182.192 217.626 182.284 218.067 182.284 218.533C182.284 218.999 182.192 219.441 182.01 219.851C181.826 220.261 181.577 220.619 181.257 220.925C180.937 221.231 180.568 221.471 180.141 221.648C179.714 221.825 179.263 221.912 178.783 221.912C178.303 221.912 177.841 221.825 177.414 221.648C176.988 221.471 176.618 221.231 176.302 220.925C175.985 220.619 175.737 220.261 175.555 219.851C175.371 219.441 175.282 218.999 175.282 218.533C175.282 218.067 175.374 217.626 175.555 217.216C175.737 216.806 175.989 216.447 176.302 216.142C176.615 215.836 176.988 215.596 177.414 215.419C177.841 215.241 178.296 215.155 178.783 215.155ZM178.783 220.57C179.06 220.57 179.323 220.518 179.569 220.414C179.814 220.31 180.031 220.164 180.216 219.979C180.4 219.795 180.549 219.58 180.656 219.333C180.763 219.086 180.816 218.822 180.816 218.537C180.816 218.252 180.763 217.988 180.656 217.741C180.549 217.494 180.404 217.279 180.216 217.094C180.027 216.91 179.814 216.764 179.569 216.66C179.323 216.556 179.06 216.503 178.783 216.503C178.506 216.503 178.236 216.556 177.987 216.66C177.742 216.764 177.525 216.91 177.343 217.094C177.159 217.279 177.016 217.494 176.91 217.741C176.803 217.988 176.75 218.252 176.75 218.537C176.75 218.822 176.803 219.086 176.91 219.333C177.016 219.58 177.162 219.795 177.343 219.979C177.525 220.164 177.742 220.31 177.987 220.414C178.232 220.518 178.499 220.57 178.783 220.57ZM184.701 219.246H185.135L186.763 221.79H188.487L186.536 219.013C186.714 218.943 186.88 218.86 187.037 218.763C187.197 218.662 187.332 218.547 187.449 218.415C187.566 218.283 187.655 218.134 187.723 217.963C187.79 217.793 187.822 217.602 187.822 217.393C187.822 216.986 187.752 216.649 187.606 216.385C187.46 216.117 187.271 215.906 187.034 215.746C186.795 215.586 186.532 215.474 186.237 215.408C185.946 215.342 185.654 215.311 185.363 215.311H183.28V221.79H184.701V219.246ZM185.22 218.321H184.701V216.611H185.22C185.317 216.611 185.43 216.615 185.562 216.629C185.693 216.642 185.818 216.674 185.935 216.726C186.052 216.778 186.152 216.858 186.233 216.962C186.315 217.066 186.358 217.212 186.358 217.397C186.358 217.581 186.315 217.734 186.233 217.855C186.152 217.974 186.052 218.071 185.935 218.137C185.818 218.203 185.693 218.252 185.562 218.28C185.43 218.307 185.317 218.321 185.22 218.321ZM194.128 219.246H193.695V221.79H192.273V215.311H194.356C194.647 215.311 194.939 215.342 195.23 215.408C195.525 215.474 195.789 215.586 196.027 215.746C196.265 215.906 196.453 216.117 196.599 216.385C196.745 216.649 196.816 216.986 196.816 217.393C196.816 217.602 196.784 217.793 196.716 217.963C196.649 218.134 196.56 218.283 196.443 218.415C196.325 218.547 196.19 218.662 196.03 218.763C195.874 218.86 195.707 218.943 195.529 219.013L197.481 221.79H195.757L194.128 219.246ZM193.695 218.321H194.214C194.31 218.321 194.424 218.307 194.555 218.28C194.687 218.252 194.811 218.203 194.928 218.137C195.046 218.071 195.145 217.974 195.227 217.855C195.309 217.734 195.351 217.581 195.351 217.397C195.351 217.212 195.309 217.066 195.227 216.962C195.145 216.858 195.046 216.778 194.928 216.726C194.811 216.674 194.687 216.642 194.555 216.629C194.424 216.615 194.31 216.611 194.214 216.611H193.695V218.321ZM202.069 221.794L202.45 220.497V220.494H199.706V219.152H201.505V217.855H199.706V216.607H202.308L201.928 215.311H198.284V221.794H202.069ZM209.406 215.311V221.79H207.853L204.91 217.421V221.79H203.488V215.311H204.91L207.984 219.746V215.311H209.406ZM213.381 216.653H215.037V215.311H210.587L210.21 216.653H211.962V221.79H213.381V216.653Z" fill="white"/>
</g>
</g>
</g>
<defs>
<clipPath id="clip0_39_202">
<rect width="142.105" height="80.2" fill="white" transform="translate(129.442 160.639)"/>
</clipPath>
<clipPath id="clip1_39_202">
<rect width="126.14" height="71.19" fill="white" transform="translate(129.442 160.639)"/>
</clipPath>
<clipPath id="clip2_39_202">
<rect width="126.14" height="71.179" fill="white" transform="translate(129.442 160.645)"/>
</clipPath>
</defs>
</svg>
