<svg width="181" height="54" viewBox="0 0 181 54" fill="none" xmlns="http://www.w3.org/2000/svg">
<g clip-path="url(#clip0_39_183)">
<g clip-path="url(#clip1_39_183)">
<g clip-path="url(#clip2_39_183)">
<path d="M152.262 0.0761719H145.121V31.5228H152.35C156.754 31.5228 157.83 29.5018 157.83 25.9972V5.60073C157.832 2.18357 156.708 0.0761719 152.262 0.0761719ZM153.654 26.0425C153.654 27.0309 153.294 27.5694 152.171 27.5694H149.3V4.01175H152.127C153.249 4.01175 153.654 4.50593 153.654 5.58387V26.0425ZM116.323 0.0761719H126.664V4.02966H120.501V13.6879H126.664V17.5518H119.114V27.5694H126.664V31.5228H114.937V17.5518H116.323V0.0761719ZM105.942 0.0761719H110.119V31.5228H105.942V0.0761719ZM90.9406 0.0761719H101.282V4.02966H95.1164V13.6879H101.281V17.5518H95.1164V31.5228H90.9406V0.0761719ZM75.3722 0.0761719H85.7132V4.02966H79.5501V13.6879H85.7132V17.5518H79.5501V27.5694H85.7132V31.5228H75.3722V0.0761719ZM72.2111 31.5228H60.4781V13.6879H61.8648V0.0761719H66.0438V13.6879H64.6571V27.5694H72.2058L72.2111 31.5228ZM46.3048 0.0761719H58.6173V4.02966H54.5489V13.6879H52.8862V31.5228H48.9875V13.6879H50.3742V4.02966H46.3069L46.3048 0.0761719ZM31.2221 0.0761719H43.5346V4.02966H39.4673V31.5228H35.2894V4.02966H31.2221V0.0761719ZM20.5386 0.0761719L15.3428 31.5228H19.566L20.6714 23.6506H27.099L28.2043 31.5228H32.4212L31.1209 23.6506H29.7332L25.8387 0.0761719H20.5386ZM21.213 19.7867L23.1887 5.71137L25.1644 19.7867H21.213ZM10.9425 15.5719C12.3355 14.8543 12.9193 13.6415 12.9193 11.7543V5.01803C12.9193 1.78317 11.8856 0.0761719 7.52855 0.0761719H0.388672V31.5228H7.79725C12.11 31.5228 13.0984 29.4154 13.0984 26.1764V19.4832C13.0984 17.5518 12.4704 16.2937 10.9425 15.574V15.5719ZM4.5666 4.02966H7.39368C8.6518 4.02966 8.83093 4.70298 8.83093 6.05066V11.4425C8.83093 12.8344 8.6518 13.6879 7.34837 13.6879H4.5666V4.02966ZM8.92365 26.0878C8.92365 27.0752 8.56434 27.5694 7.48641 27.5694H4.5666V17.5518H7.39368C8.56118 17.5518 8.92049 18.184 8.92049 19.2135L8.92365 26.0878ZM157.832 0.0761719H158.893V0.301664H158.498V1.41016H158.227V0.301664H157.832V0.0761719ZM160.349 0.0761719V1.41016H160.097V0.356456L159.834 1.41016H159.575L159.31 0.356456V1.41016H159.059V0.0761719H159.462L159.708 0.98657L159.944 0.0761719H160.349ZM142.511 31.5228H130.783V13.6879H132.17V0.0761719H136.348V13.6879H134.961V27.5694H142.511V31.5228ZM48.9854 47.2462V45.5961L54.197 40.5383C54.5257 40.2096 54.6754 40.0441 54.6754 39.7301V39.0104C54.6754 38.6206 54.4646 38.4109 54.0769 38.4109H51.2319C50.842 38.4109 50.6323 38.6216 50.6323 39.0104V40.2085H48.9854V39.0104C48.9854 37.6628 49.8842 36.764 51.2319 36.764H54.0769C55.4246 36.764 56.3234 37.6628 56.3234 39.0104V39.7291C56.3234 40.3729 56.1284 40.9419 55.7396 41.3307L51.3815 45.5961H56.3234V47.243H51.2013V46.1229C51.2013 46.0176 51.0517 45.9585 50.9474 46.0481L49.6893 47.2462H48.9854ZM67.0226 39.0104C67.0226 37.6628 67.9204 36.764 69.2681 36.764H71.9635C73.3122 36.764 74.2099 37.6628 74.2099 39.0104V44.9997C74.2099 46.3474 73.3122 47.2462 71.9635 47.2462H69.2681C67.9204 47.2462 67.0226 46.3474 67.0226 44.9997V39.0104ZM68.6685 44.9997C68.6685 45.3895 68.8793 45.5992 69.267 45.5992H71.9624C72.3523 45.5992 72.562 45.3885 72.562 44.9997V39.0104C72.562 38.6206 72.3512 38.4109 71.9624 38.4109H69.2681C68.8793 38.4109 68.6696 38.6216 68.6696 39.0104L68.6685 44.9997ZM84.9082 45.7489V44.1019L90.4338 36.764H92.0818V44.1019H91.007C90.9016 44.1019 90.8426 44.2516 90.9322 44.3559L92.0913 45.614V47.2462H90.4348V45.7489H84.9082ZM86.9745 44.1019H90.4338V39.5046L86.9745 44.1019ZM102.78 47.2462V45.5961L107.991 40.5383C108.32 40.2096 108.47 40.0441 108.47 39.7301V39.0104C108.47 38.6206 108.259 38.4109 107.871 38.4109H105.026C104.638 38.4109 104.428 38.6216 104.428 39.0104V40.2085H102.782V39.0104C102.782 37.6628 103.68 36.764 105.028 36.764H107.873C109.22 36.764 110.118 37.6628 110.118 39.0104V39.7291C110.118 40.3729 109.924 40.9419 109.534 41.3307L105.177 45.5961H110.119V47.243H104.998V46.1229C104.998 46.0176 104.848 45.9585 104.743 46.0481L103.486 47.2462H102.78Z" fill="white"/>
</g>
</g>
</g>
<defs>
<clipPath id="clip0_39_183">
<rect width="180.25" height="53.1881" fill="white" transform="translate(0.369141 0.0761719)"/>
</clipPath>
<clipPath id="clip1_39_183">
<rect width="160" height="47.17" fill="white" transform="translate(0.369141 0.0761719)"/>
</clipPath>
<clipPath id="clip2_39_183">
<rect width="159.96" height="47.17" fill="white" transform="translate(0.388672 0.0761719)"/>
</clipPath>
</defs>
</svg>
