<svg width="161" height="48" viewBox="0 0 161 48" fill="none" xmlns="http://www.w3.org/2000/svg">
<g clip-path="url(#clip0_39_861)">
<g clip-path="url(#clip1_39_861)">
<g clip-path="url(#clip2_39_861)">
<path d="M152.863 0.378906H145.722V31.8256H152.952C157.355 31.8256 158.431 29.8046 158.431 26.3V5.90346C158.433 2.48631 157.31 0.378906 152.863 0.378906ZM154.255 26.3453C154.255 27.3336 153.896 27.8721 152.773 27.8721H149.901V4.31448H152.729C153.851 4.31448 154.255 4.80867 154.255 5.8866V26.3453ZM116.925 0.378906H127.266V4.33239H121.103V13.9906H127.266V17.8545H119.716V27.8721H127.266V31.8256H115.538V17.8545H116.925V0.378906ZM106.544 0.378906H110.721V31.8256H106.544V0.378906ZM91.5422 0.378906H101.883V4.33239H95.718V13.9906H101.882V17.8545H95.718V31.8256H91.5422V0.378906ZM75.9737 0.378906H86.3148V4.33239H80.1517V13.9906H86.3148V17.8545H80.1517V27.8721H86.3148V31.8256H75.9737V0.378906ZM72.8126 31.8256H61.0797V13.9906H62.4663V0.378906H66.6453V13.9906H65.2587V27.8721H72.8074L72.8126 31.8256ZM46.9063 0.378906H59.2188V4.33239H55.1505V13.9906H53.4878V31.8256H49.5891V13.9906H50.9757V4.33239H46.9084L46.9063 0.378906ZM31.8236 0.378906H44.1362V4.33239H40.0689V31.8256H35.8909V4.33239H31.8236V0.378906ZM21.1402 0.378906L15.9444 31.8256H20.1676L21.2729 23.9534H27.7005L28.8058 31.8256H33.0228L31.7225 23.9534H30.3348L26.4403 0.378906H21.1402ZM21.8145 20.0894L23.7902 6.0141L25.7659 20.0894H21.8145ZM11.5441 15.8746C12.9371 15.1571 13.5209 13.9443 13.5209 12.0571V5.32077C13.5209 2.0859 12.4872 0.378906 8.13012 0.378906H0.990234V31.8256H8.39881C12.7116 31.8256 13.7 29.7182 13.7 26.4791V19.786C13.7 17.8545 13.072 16.5964 11.5441 15.8767V15.8746ZM5.16816 4.33239H7.99524C9.25336 4.33239 9.43249 5.00571 9.43249 6.35339V11.7452C9.43249 13.1371 9.25336 13.9906 7.94993 13.9906H5.16816V4.33239ZM9.52522 26.3906C9.52522 27.3779 9.1659 27.8721 8.08797 27.8721H5.16816V17.8545H7.99524C9.16274 17.8545 9.52206 18.4868 9.52206 19.5162L9.52522 26.3906ZM158.433 0.378906H159.494V0.604398H159.099V1.71289H158.828V0.604398H158.433V0.378906ZM160.951 0.378906V1.71289H160.699V0.659191L160.435 1.71289H160.176L159.912 0.659191V1.71289H159.661V0.378906H160.063L160.31 1.2893L160.546 0.378906H160.951ZM143.112 31.8256H131.385V13.9906H132.771V0.378906H136.949V13.9906H135.563V27.8721H143.112V31.8256ZM49.5869 47.5489V45.8988L54.7986 40.841C55.1273 40.5123 55.2769 40.3469 55.2769 40.0329V39.3132C55.2769 38.9233 55.0662 38.7136 54.6784 38.7136H51.8334C51.4436 38.7136 51.2339 38.9244 51.2339 39.3132V40.5112H49.5869V39.3132C49.5869 37.9655 50.4858 37.0667 51.8334 37.0667H54.6784C56.0261 37.0667 56.9249 37.9655 56.9249 39.3132V40.0318C56.9249 40.6756 56.73 41.2446 56.3412 41.6334L51.9831 45.8988H56.9249V47.5457H51.8029V46.4257C51.8029 46.3203 51.6533 46.2613 51.5489 46.3508L50.2908 47.5489H49.5869ZM67.6242 39.3132C67.6242 37.9655 68.522 37.0667 69.8696 37.0667H72.565C73.9138 37.0667 74.8115 37.9655 74.8115 39.3132V45.3024C74.8115 46.6501 73.9138 47.5489 72.565 47.5489H69.8696C68.522 47.5489 67.6242 46.6501 67.6242 45.3024V39.3132ZM69.2701 45.3024C69.2701 45.6923 69.4808 45.902 69.8686 45.902H72.564C72.9538 45.902 73.1635 45.6912 73.1635 45.3024V39.3132C73.1635 38.9233 72.9528 38.7136 72.564 38.7136H69.8696C69.4808 38.7136 69.2711 38.9244 69.2711 39.3132L69.2701 45.3024ZM85.5097 46.0516V44.4047L91.0353 37.0667H92.6833V44.4047H91.6086C91.5032 44.4047 91.4442 44.5543 91.5337 44.6586L92.6928 45.9167V47.5489H91.0364V46.0516H85.5097ZM87.576 44.4047H91.0353V39.8074L87.576 44.4047ZM103.382 47.5489V45.8988L108.592 40.841C108.922 40.5123 109.072 40.3469 109.072 40.0329V39.3132C109.072 38.9233 108.861 38.7136 108.473 38.7136H105.628C105.239 38.7136 105.03 38.9244 105.03 39.3132V40.5112H103.384V39.3132C103.384 37.9655 104.281 37.0667 105.629 37.0667H108.474C109.822 37.0667 110.72 37.9655 110.72 39.3132V40.0318C110.72 40.6756 110.526 41.2446 110.136 41.6334L105.779 45.8988H110.721V47.5457H105.6V46.4257C105.6 46.3203 105.45 46.2613 105.345 46.3508L104.088 47.5489H103.382Z" fill="white"/>
</g>
</g>
</g>
<defs>
<clipPath id="clip0_39_861">
<rect width="160" height="47.17" fill="white" transform="translate(0.970703 0.378906)"/>
</clipPath>
<clipPath id="clip1_39_861">
<rect width="160" height="47.17" fill="white" transform="translate(0.970703 0.378906)"/>
</clipPath>
<clipPath id="clip2_39_861">
<rect width="159.96" height="47.17" fill="white" transform="translate(0.990234 0.378906)"/>
</clipPath>
</defs>
</svg>
