<svg width="400" height="403" viewBox="0 0 400 403" fill="none" xmlns="http://www.w3.org/2000/svg">
<g clip-path="url(#clip0_39_228)">
<g clip-path="url(#clip1_39_228)">
<g clip-path="url(#clip2_39_228)">
<path fill-rule="evenodd" clip-rule="evenodd" d="M124.905 176.859V195.646H146.06C148.25 195.643 150.349 194.773 151.898 193.221C153.447 191.67 154.317 189.566 154.32 187.374V182.345C154.319 180.152 153.447 178.048 151.898 176.497C150.351 174.944 148.25 174.072 146.06 174.07H122.082V175.262C122.65 175.262 123.209 175.408 123.703 175.688C124.198 175.968 124.612 176.371 124.905 176.857V176.859ZM144.362 178.061C145.495 178.061 146.58 178.512 147.382 179.313C148.183 180.115 148.636 181.201 148.639 182.336V187.363C148.636 188.497 148.183 189.584 147.382 190.385C146.58 191.187 145.493 191.637 144.362 191.638H135.935L134.919 192.656H130.594V178.059H144.361L144.362 178.061ZM185.776 174.07H160.514V178.059H185.776V174.07ZM255.279 182.344V187.371C255.278 189.565 254.406 191.669 252.857 193.221C251.308 194.771 249.207 195.643 247.017 195.646H223.04V194.451C223.606 194.451 224.165 194.304 224.658 194.024C225.152 193.744 225.564 193.341 225.856 192.854V174.07H247.019C249.209 174.072 251.308 174.944 252.857 176.496C254.406 178.048 255.276 180.15 255.279 182.344ZM231.545 178.059V191.645L245.311 191.635C246.443 191.632 247.526 191.181 248.324 190.379C249.124 189.577 249.574 188.493 249.579 187.36V182.333C249.576 181.2 249.124 180.115 248.324 179.315C247.525 178.513 246.441 178.062 245.311 178.059H231.545ZM205.363 200.777H230.593C231.929 200.777 233.209 201.31 234.155 202.256C235.101 203.201 235.632 204.483 235.635 205.822V208.96H229.945V205.828C229.945 205.766 229.941 205.707 229.929 205.646C229.917 205.574 229.897 205.504 229.87 205.436C229.857 205.403 229.841 205.369 229.825 205.337C229.809 205.305 229.79 205.275 229.771 205.244C229.753 205.216 229.732 205.188 229.712 205.163L229.675 205.12L229.638 205.08C229.44 204.881 229.171 204.769 228.891 204.768H212.857V208.753L213.873 209.771V217.302C213.873 217.584 213.985 217.852 214.184 218.051C214.382 218.249 214.651 218.361 214.933 218.363H228.936L228.968 218.36L229.017 218.355C229.112 218.344 229.205 218.318 229.293 218.281C229.421 218.228 229.537 218.15 229.635 218.051C229.733 217.953 229.811 217.836 229.864 217.707C229.916 217.579 229.944 217.44 229.944 217.3V214.166H235.633V217.3C235.633 218.64 235.101 219.923 234.157 220.868C233.211 221.815 231.931 222.348 230.593 222.348H213.224C211.888 222.348 210.606 221.814 209.661 220.868C208.715 219.921 208.184 218.638 208.182 217.3V203.566C207.89 203.08 207.477 202.676 206.982 202.396C206.488 202.116 205.931 201.971 205.363 201.969V200.777ZM166.202 191.653H185.774V195.643H157.696V194.448C158.263 194.448 158.821 194.301 159.314 194.022C159.807 193.742 160.221 193.339 160.513 192.853V181.142H164.421L166.138 182.862H181.709V186.849H166.201V191.653H166.202ZM172.344 202.254C173.288 203.2 173.821 204.483 173.823 205.822V210.507C173.821 211.844 173.29 213.128 172.344 214.075C171.4 215.02 170.119 215.553 168.783 215.555H153.423V222.347H144.917V221.155C145.484 221.155 146.042 221.008 146.535 220.728C147.028 220.448 147.44 220.044 147.733 219.56V200.776H168.783C170.119 200.777 171.4 201.31 172.344 202.256V202.254ZM167.821 211.251C168.02 211.052 168.13 210.784 168.132 210.504V205.822C168.132 205.542 168.02 205.273 167.821 205.075C167.623 204.876 167.354 204.764 167.074 204.764H158.892L157.876 203.747H153.421V211.563H167.074C167.226 211.563 167.375 211.529 167.509 211.467C167.623 211.414 167.729 211.342 167.819 211.251H167.821ZM136.236 200.779H110.094V201.971C110.66 201.971 111.219 202.118 111.713 202.398C112.207 202.678 112.62 203.08 112.913 203.566V208.512C112.916 209.849 113.447 211.131 114.393 212.076C115.337 213.022 116.618 213.553 117.953 213.555H134.53C134.81 213.555 135.079 213.665 135.276 213.864C135.474 214.06 135.586 214.329 135.586 214.611V217.297C135.586 217.345 135.583 217.392 135.577 217.44C135.573 217.467 135.569 217.494 135.562 217.521C135.549 217.584 135.53 217.644 135.506 217.702C135.454 217.83 135.375 217.947 135.278 218.044C135.18 218.142 135.063 218.22 134.935 218.273C134.807 218.326 134.67 218.353 134.53 218.353H119.658C119.378 218.353 119.11 218.241 118.911 218.043C118.713 217.844 118.602 217.576 118.602 217.294V216.156H112.913V222.342H136.236C137.572 222.34 138.854 221.808 139.798 220.862C140.742 219.915 141.274 218.633 141.276 217.294V214.608C141.274 213.27 140.742 211.987 139.798 211.041C138.854 210.096 137.572 209.563 136.236 209.561H119.658C119.378 209.561 119.11 209.449 118.911 209.251C118.778 209.118 118.686 208.955 118.638 208.776C118.614 208.688 118.602 208.596 118.601 208.502V204.756H134.553L134.614 204.76C134.647 204.763 134.681 204.766 134.713 204.772C134.788 204.787 134.861 204.808 134.932 204.836C135.06 204.889 135.177 204.968 135.274 205.065C135.372 205.164 135.45 205.28 135.503 205.409L135.527 205.472C135.535 205.496 135.543 205.52 135.549 205.544C135.572 205.632 135.585 205.721 135.585 205.812V207.033H141.274V205.812C141.271 204.475 140.74 203.193 139.796 202.248C138.852 201.302 137.57 200.771 136.236 200.769V200.779ZM247.704 213.556V218.363H270.083V222.351H239.197V221.16C239.763 221.16 240.321 221.012 240.816 220.732C241.31 220.452 241.723 220.051 242.016 219.564V200.781H267.279V204.769H247.707V209.572H256.851L257.867 210.59H263.212V213.558H247.704V213.556ZM181.453 200.779V201.971C181.992 201.971 182.523 202.104 182.998 202.356C183.475 202.609 183.882 202.977 184.184 203.424L173.939 222.351H179.794L181.843 218.566H187.59L188.606 217.548H197.373L198.582 219.787C198.278 220.212 197.877 220.56 197.413 220.8C196.949 221.038 196.434 221.163 195.91 221.163V222.355H205.835L194.159 200.781L181.455 200.776L181.453 200.779ZM195.223 213.556H184.56L189.318 204.763H190.461L195.223 213.556ZM197.296 194.086C197.76 194.326 198.275 194.449 198.799 194.449V195.644H188.874L200.549 174.07H213.261V175.262C212.721 175.262 212.19 175.395 211.715 175.648C211.238 175.901 210.832 176.269 210.53 176.715L220.776 195.643H214.913L212.864 191.851H207.117L206.101 190.833H197.335L196.125 193.073C196.429 193.499 196.831 193.846 197.295 194.085L197.296 194.086ZM205.397 178.059H204.255L199.504 186.851H210.157L205.398 178.059H205.397ZM268.906 200.781V201.025H268.593V202.003H268.329V201.025H267.971V200.781H268.905H268.906ZM270.094 202.001V200.781H269.814L269.611 201.344H269.587L269.383 200.781H269.11V202.001H269.353V201.286H269.375L269.543 201.732H269.658L269.827 201.286H269.849V202.001H270.092H270.094Z" fill="white"/>
</g>
</g>
</g>
<defs>
<clipPath id="clip0_39_228">
<rect width="179.801" height="54.9108" fill="white" transform="translate(110.094 174.07)"/>
</clipPath>
<clipPath id="clip1_39_228">
<rect width="160" height="48.5" fill="white" transform="translate(110.094 174.07)"/>
</clipPath>
<clipPath id="clip2_39_228">
<rect width="160" height="48.5" fill="white" transform="translate(110.094 174.07)"/>
</clipPath>
</defs>
</svg>
