<svg width="40" height="41" viewBox="0 0 40 41" fill="none" xmlns="http://www.w3.org/2000/svg">
<g clip-path="url(#clip0_39_347)">
<path d="M21.7 20.9105L16.8 16.0105C16.4 15.6105 16.4 15.0105 16.8 14.6105C17.2 14.2105 17.8 14.2105 18.2 14.6105L23.1 19.5105C23.5 19.9105 23.5 20.5105 23.1 20.9105C22.8 21.3105 22.1 21.3105 21.7 20.9105Z" fill="#F3F3F3"/>
<path d="M23.1996 21.1102L18.2996 26.0102C17.8996 26.4102 17.2996 26.4102 16.8996 26.0102C16.4996 25.6102 16.4996 25.0102 16.8996 24.6102L21.7996 19.7102C22.1996 19.3102 22.7996 19.3102 23.1996 19.7102C23.5996 20.0102 23.5996 20.7102 23.1996 21.1102Z" fill="#F3F3F3"/>
<path d="M20.0002 2.40977C29.8002 2.40977 37.9002 10.4098 37.9002 20.3098C37.9002 30.2098 29.9002 38.2098 20.0002 38.2098C10.1002 38.2098 2.1002 30.1098 2.1002 20.3098C2.1002 10.5098 10.2002 2.40977 20.0002 2.40977ZM20.0002 0.509766C9.00019 0.509766 0.200195 9.30976 0.200195 20.3098C0.200195 31.3098 9.00019 40.1098 20.0002 40.1098C31.0002 40.1098 39.8002 31.3098 39.8002 20.3098C39.8002 9.30976 31.0002 0.509766 20.0002 0.509766Z" fill="#F3F3F3"/>
</g>
<defs>
<clipPath id="clip0_39_347">
<rect width="40" height="40" fill="white" transform="translate(0 0.310547)"/>
</clipPath>
</defs>
</svg>
