<svg width="401" height="403" viewBox="0 0 401 403" fill="none" xmlns="http://www.w3.org/2000/svg">
<g clip-path="url(#clip0_39_238)">
<g clip-path="url(#clip1_39_238)">
<g clip-path="url(#clip2_39_238)">
<path d="M190.628 166.067V168.433H186.579C186.579 168.433 185.775 168.418 185.291 167.929L183.868 166.517V168.433H181.196V165.84V161.747H185.922C186.478 161.782 187.008 161.989 187.442 162.339C187.678 162.533 187.866 162.779 187.992 163.057C188.119 163.335 188.18 163.638 188.171 163.943C188.181 164.244 188.119 164.542 187.992 164.814C187.865 165.086 187.675 165.325 187.439 165.51C187.292 165.623 187.138 165.726 186.977 165.817C186.967 165.823 186.958 165.832 186.951 165.841C186.944 165.846 186.938 165.852 186.934 165.86C186.93 165.868 186.928 165.876 186.928 165.884C186.928 165.904 186.953 166.064 187.349 166.068L190.628 166.067ZM185.759 164.073C185.76 164.013 185.748 163.953 185.723 163.898C185.699 163.843 185.665 163.794 185.62 163.753C185.576 163.712 185.524 163.681 185.468 163.661C185.411 163.642 185.351 163.634 185.291 163.639H183.894V164.481H185.407C185.506 164.468 185.596 164.419 185.661 164.343C185.726 164.268 185.761 164.172 185.759 164.073ZM208.908 168.433H206.439L206.123 167.463H203.826L203.519 168.433H201.01C201.01 168.422 203.055 161.747 203.055 161.747H206.804L208.908 168.433ZM205.579 165.649L205 163.792L204.424 165.649H205.579ZM201.919 161.747L199.86 168.433H197.569L196.785 165.863L195.979 168.433H193.714L191.621 161.747H194.365L194.915 163.564L195.427 161.747H198.233L198.807 163.564L199.357 161.747H201.919ZM220.922 163.98C220.921 163.989 220.923 163.998 220.927 164.006C220.931 164.014 220.938 164.021 220.945 164.026C221.063 164.155 221.64 164.759 221.787 164.933C222.142 165.333 222.335 165.852 222.327 166.387C222.32 166.922 222.113 167.435 221.746 167.825C221.547 168.023 221.31 168.179 221.05 168.283C220.789 168.388 220.511 168.439 220.23 168.433H215.052C215.052 168.433 214.246 168.414 213.758 167.929L212.338 166.517V168.433H209.673V161.747H214.395C214.951 161.78 215.483 161.987 215.915 162.339C216.15 162.533 216.339 162.778 216.465 163.057C216.592 163.335 216.653 163.638 216.644 163.943C216.653 164.244 216.591 164.542 216.463 164.814C216.336 165.086 216.146 165.325 215.909 165.51C215.764 165.623 215.61 165.726 215.45 165.817C215.45 165.817 215.401 165.844 215.401 165.884C215.401 165.904 215.429 166.064 215.83 166.064H219.145C219.156 166.064 219.166 166.063 219.176 166.059C219.186 166.055 219.195 166.05 219.203 166.043C219.211 166.035 219.217 166.027 219.221 166.017C219.225 166.008 219.228 165.997 219.228 165.987C219.228 165.977 219.226 165.966 219.222 165.957C219.218 165.948 219.212 165.939 219.204 165.932C219.204 165.932 218.614 165.333 218.375 165.045C218.091 164.658 217.931 164.194 217.916 163.715C217.924 163.417 218.001 163.124 218.138 162.86C218.276 162.596 218.472 162.366 218.712 162.189C219.095 161.926 219.544 161.774 220.008 161.748H224.299V163.914H220.962C220.949 163.919 220.938 163.929 220.93 163.94C220.923 163.952 220.919 163.966 220.919 163.98H220.922ZM214.238 164.073C214.237 164.012 214.225 163.952 214.2 163.897C214.175 163.841 214.139 163.792 214.094 163.751C214.05 163.71 213.997 163.679 213.939 163.66C213.882 163.641 213.821 163.633 213.761 163.639H212.366V164.481H213.886C213.983 164.466 214.073 164.417 214.137 164.342C214.201 164.267 214.236 164.171 214.235 164.073H214.238ZM180.762 168.433H178.299L177.989 167.463H175.686L175.381 168.43H172.876C172.876 168.43 173.245 167.221 173.669 165.837L174.922 161.744H178.669L179.951 165.837L180.762 168.433ZM177.44 165.649L176.863 163.792L176.285 165.649H177.44ZM173.844 161.747V163.927H170.918V168.433H168.512V163.914H165.382C165.369 163.92 165.359 163.929 165.352 163.941C165.345 163.953 165.341 163.966 165.342 163.98C165.343 163.997 165.35 164.014 165.362 164.026C165.459 164.123 165.824 164.505 166.051 164.753C166.118 164.825 166.174 164.894 166.208 164.926C166.441 165.187 166.607 165.5 166.692 165.84C166.73 166.014 166.75 166.193 166.75 166.371C166.75 166.687 166.681 166.999 166.546 167.284C166.452 167.484 166.324 167.667 166.169 167.825C165.97 168.022 165.733 168.177 165.474 168.282C165.214 168.386 164.936 168.438 164.656 168.433H142.935L142.199 167.251L141.463 166.074H163.566C163.577 166.074 163.588 166.072 163.598 166.069C163.608 166.065 163.617 166.059 163.625 166.052C163.633 166.044 163.639 166.035 163.644 166.025C163.648 166.015 163.65 166.005 163.65 165.994C163.65 165.974 163.641 165.955 163.627 165.941C163.627 165.941 163.59 165.904 163.534 165.844C163.357 165.66 162.973 165.266 162.802 165.048C162.732 164.957 162.671 164.859 162.618 164.757C162.442 164.439 162.346 164.084 162.337 163.72C162.344 163.421 162.419 163.128 162.556 162.862C162.694 162.597 162.89 162.366 163.13 162.188C163.512 161.925 163.96 161.772 164.423 161.747H173.844ZM246.25 166.065L244.776 168.433H221.926C222.236 168.186 222.486 167.872 222.656 167.514C222.826 167.156 222.912 166.764 222.908 166.367C222.908 166.263 222.9 166.164 222.892 166.065H246.25ZM225.373 161.747V161.813H225.212V162.249H225.128V161.813H224.969V161.747H225.373ZM226.036 161.747V162.249H225.953V161.828L225.785 162.249H225.732L225.567 161.828V162.249H225.482V161.747H225.613L225.766 162.127L225.915 161.747H226.036ZM245.462 209.317L245.122 210.187L244.774 209.317H244.478V210.464H244.669V209.505L245.051 210.464H245.169L245.55 209.505V210.464H245.741V209.317H245.462ZM243.327 209.317V209.47H243.687V210.464H243.879V209.47H244.244V209.317H243.327ZM198.333 226.501V226.065H198.174V225.997H198.577V226.065H198.418V226.501H198.333ZM199.156 226.501V226.08L198.988 226.501H198.936L198.769 226.08V226.501H198.685V225.997H198.814L198.967 226.38L199.117 225.997H199.245V226.501H199.156ZM196.974 225.997L201.064 232.545H199.521L198.705 231.235H196.319L197.136 229.926H197.892L196.98 228.468L194.431 232.545H187.637L189.27 229.926H188.069L188.885 228.618H194.135L193.32 229.926H190.814L189.998 231.235H193.706L196.974 225.997ZM142.961 225.997H186.593L185.12 228.364H141.488L142.961 225.997ZM190.521 225.997H195.903L195.085 227.308H189.703L190.521 225.997ZM244.737 225.997L246.214 228.364H202.582L201.109 225.997H244.737ZM244.931 200.554H244.36C243.741 200.545 243.123 200.498 242.509 200.413C241.423 200.273 241.169 199.615 241.058 198.634C240.918 197.073 240.918 194.207 240.918 190.686V184.293C240.918 178.774 240.918 177.758 240.992 176.593C241.062 175.323 241.352 174.708 242.332 174.527C242.691 174.457 243.056 174.42 243.422 174.416H244.004V173.765H233.216V174.416H233.794C234.234 174.407 234.673 174.455 235.101 174.557C235.899 174.74 236.26 175.355 236.334 176.589C236.407 177.754 236.407 178.77 236.407 184.288V190.676C236.407 194.197 236.407 197.063 236.228 198.587C236.117 199.641 235.899 200.26 235.174 200.403C234.745 200.499 234.306 200.546 233.867 200.544H233.286V201.199H244.93L244.931 200.554ZM222.142 197.251C220.474 198.956 216.7 201.207 209.988 201.207H196.961V200.552H197.538C197.978 200.555 198.417 200.507 198.846 200.412C199.571 200.271 199.751 199.469 199.898 198.416C200.079 196.89 200.079 194.024 200.079 190.684V184.293C200.079 178.774 200.079 177.758 200.006 176.593C199.936 175.359 199.644 174.781 198.448 174.527C197.98 174.444 197.505 174.407 197.031 174.416H196.415V173.765H208.024C212.56 173.765 218.621 173.765 222.576 177.901C224.391 179.787 226.096 182.801 226.096 187.121C226.097 191.696 224.175 195.181 222.142 197.251ZM221.237 188.175C221.237 183.563 219.311 180.586 217.754 179.098C214.413 175.905 210.275 175.47 207.448 175.47C206.722 175.47 205.378 175.577 205.086 175.724C204.76 175.865 204.653 176.049 204.653 176.45C204.615 177.684 204.615 180.841 204.615 183.71V188.281C204.615 192.131 204.653 194.927 204.689 195.616C204.726 196.525 204.775 197.88 205.086 198.374C205.582 199.158 206.976 199.825 209.841 199.825C213.54 199.825 216.014 199.099 218.187 197.214C220.511 195.218 221.237 191.914 221.237 188.175ZM145.701 202.253C145.421 202.554 145.111 202.826 144.775 203.063C144.23 203.449 143.647 203.779 143.034 204.045L143.174 204.51C144.163 204.314 145.112 203.952 145.98 203.44C146.867 202.896 147.707 202.28 148.493 201.598L148.611 201.497C150.492 199.854 151.633 198.128 152.177 196.538C152.907 194.505 153.05 192.18 153.05 190.11C153.05 188.294 152.94 186.552 152.94 184.993V179.954C152.94 177.894 152.94 177.758 153.013 176.593C153.086 175.323 153.378 174.708 154.357 174.527C154.704 174.455 155.056 174.418 155.41 174.416H156.062V173.765H144.765V174.416H145.384C145.858 174.407 146.332 174.444 146.798 174.527C147.995 174.781 148.285 175.359 148.358 176.593C148.423 177.633 148.429 177.981 148.429 179.954V188.69C148.429 194.763 148.455 198.319 146.745 200.965C146.443 201.429 146.093 201.861 145.701 202.253ZM186.559 195.672H185.747L185.74 195.73C185.72 195.829 185.665 196.107 185.646 196.233C185.392 197.723 184.954 198.479 184.011 198.92C183.068 199.36 179.873 199.355 178.93 199.355C175.229 199.355 174.648 198.809 174.574 196.304C174.537 195.254 174.574 191.914 174.574 190.68V187.81C174.574 187.592 174.612 187.449 174.791 187.449C175.664 187.449 180.929 187.486 181.618 187.556C182.958 187.703 183.467 188.248 183.651 188.973C183.727 189.406 183.773 189.843 183.791 190.281V190.579V190.61H184.425L184.986 184.469H184.418C184.418 184.469 184.385 184.736 183.911 185.142C183.576 185.406 183.068 185.5 182.302 185.563C181.461 185.636 175.623 185.636 174.824 185.636C174.608 185.636 174.57 185.495 174.57 185.239V176.049C174.57 175.794 174.644 175.688 174.824 175.688C175.55 175.688 181.032 175.771 181.65 175.828C183.408 175.999 183.826 176.484 184.08 177.136C184.227 177.557 184.3 177.999 184.298 178.444V178.952H184.96L185.469 173.338H184.908L184.487 173.776H166.34V174.422H166.959C167.432 174.413 167.906 174.45 168.373 174.533C169.569 174.787 169.86 175.365 169.934 176.599C170.007 177.764 170.007 178.78 170.007 184.298V190.686C170.007 194.026 170.007 196.892 169.823 198.417C169.683 199.47 169.499 200.27 168.771 200.413C168.343 200.509 167.905 200.556 167.466 200.554H166.886V201.216H185.839L186.559 195.672Z" fill="white"/>
<path d="M196.454 209.372V209.685H196.8C197.038 209.687 197.27 209.757 197.468 209.887C197.604 209.973 197.708 210.101 197.766 210.251C197.827 210.437 197.859 210.821 197.859 211.4V218.804C197.859 219.491 197.801 219.926 197.686 220.105C197.498 220.385 197.203 220.523 196.8 220.519H196.448V220.832H201.358V220.519H200.945C200.675 220.519 200.41 220.45 200.176 220.317C200.019 220.24 199.894 220.111 199.821 219.953C199.748 219.766 199.711 219.383 199.711 218.804V211.4C199.711 210.714 199.782 210.278 199.922 210.099C200.137 209.819 200.483 209.678 200.945 209.678H201.358V209.365H196.448L196.454 209.372Z" fill="white"/>
<path d="M177.701 218.541L175.249 215.421C176.041 215.098 176.8 214.673 177.259 214.158C177.712 213.656 177.958 213.001 177.948 212.325C177.961 211.701 177.746 211.095 177.343 210.619C176.96 210.155 176.449 209.814 175.874 209.637C175.296 209.459 174.399 209.37 173.184 209.37H169.01V209.683H169.443C169.878 209.683 170.204 209.807 170.425 210.055C170.582 210.229 170.662 210.677 170.662 211.398V218.802C170.662 219.454 170.602 219.87 170.484 220.044C170.277 220.36 169.93 220.518 169.445 220.517H169.014V220.83H173.924V220.517H173.477C173.047 220.517 172.728 220.393 172.513 220.145C172.356 219.971 172.277 219.523 172.277 218.802V215.795L172.53 215.812H172.767C172.946 215.812 173.188 215.812 173.468 215.795L176.392 219.515C176.687 219.922 177.075 220.254 177.523 220.483C177.971 220.712 178.466 220.831 178.969 220.831H180.838V220.518C180.214 220.451 179.619 220.294 179.23 220.045C178.633 219.641 178.115 219.131 177.701 218.541ZM172.272 214.891V210.228C172.694 210.137 173.124 210.085 173.555 210.072C174.269 210.072 174.843 210.289 175.278 210.723C175.495 210.945 175.664 211.209 175.776 211.499C175.888 211.788 175.939 212.097 175.928 212.407V212.706C175.939 213.017 175.888 213.326 175.776 213.615C175.664 213.905 175.495 214.169 175.278 214.391C174.845 214.824 174.271 215.041 173.555 215.042C173.124 215.032 172.694 214.984 172.272 214.897V214.891Z" fill="white"/>
<path d="M243.189 220.046C242.59 219.642 242.071 219.132 241.656 218.541L239.205 215.421C239.996 215.098 240.748 214.673 241.214 214.158C241.668 213.656 241.914 213.001 241.903 212.325C241.916 211.703 241.701 211.097 241.299 210.621C240.916 210.157 240.405 209.816 239.829 209.639C239.251 209.461 238.354 209.372 237.138 209.372H232.966V209.685H233.397C233.831 209.685 234.158 209.809 234.379 210.057C234.538 210.231 234.617 210.679 234.616 211.4V218.803C234.616 219.456 234.557 219.872 234.439 220.046C234.229 220.362 233.883 220.52 233.399 220.519H232.969V220.832H237.879V220.519H237.431C237.003 220.519 236.682 220.395 236.469 220.147C236.305 219.971 236.223 219.523 236.223 218.803V215.796L236.486 215.808H236.722C236.902 215.808 237.135 215.808 237.423 215.792L240.348 219.511C240.643 219.919 241.03 220.25 241.479 220.479C241.927 220.708 242.422 220.827 242.925 220.827H244.794V220.514C244.171 220.451 243.578 220.294 243.189 220.046ZM236.223 214.898V210.228C236.646 210.138 237.076 210.086 237.509 210.072C238.223 210.072 238.797 210.29 239.23 210.724C239.447 210.946 239.617 211.209 239.729 211.499C239.841 211.788 239.892 212.098 239.881 212.408V212.707C239.892 213.017 239.841 213.326 239.729 213.616C239.617 213.905 239.447 214.169 239.23 214.391C238.797 214.824 238.223 215.041 237.509 215.042C237.077 215.033 236.647 214.984 236.223 214.898Z" fill="white"/>
<path d="M192.771 209.372H189.437V209.686L189.594 209.71C189.803 209.739 190.007 209.797 190.2 209.883C190.255 209.913 190.307 209.949 190.354 209.991C190.422 210.044 190.478 210.111 190.518 210.188C190.558 210.264 190.581 210.348 190.585 210.435C190.585 210.673 190.459 211.102 190.21 211.719L187.506 218.353L184.651 211.772C184.392 211.176 184.262 210.737 184.262 210.454C184.26 210.358 184.281 210.263 184.322 210.177C184.363 210.09 184.424 210.015 184.5 209.956C184.657 209.826 185 209.736 185.529 209.685V209.372H180.851V209.685C181.137 209.699 181.419 209.762 181.682 209.875C181.884 209.971 182.061 210.111 182.201 210.284C182.385 210.579 182.541 210.891 182.666 211.215L186.957 221.094H187.27L191.493 211.232C191.663 210.783 191.926 210.374 192.265 210.034C192.519 209.836 192.822 209.709 193.142 209.668V209.372H192.766H192.771Z" fill="white"/>
<path d="M213.255 209.372V209.684L213.412 209.71C213.621 209.738 213.826 209.796 214.018 209.883C214.074 209.912 214.125 209.949 214.172 209.991C214.24 210.044 214.296 210.111 214.336 210.188C214.376 210.264 214.399 210.348 214.404 210.435C214.404 210.673 214.279 211.102 214.029 211.719L211.326 218.353L208.471 211.772C208.212 211.176 208.082 210.737 208.082 210.454C208.08 210.359 208.1 210.264 208.141 210.177C208.182 210.091 208.243 210.015 208.318 209.956C208.477 209.825 208.819 209.736 209.349 209.685V209.372H204.669V209.685C204.955 209.698 205.237 209.762 205.501 209.875C205.702 209.971 205.88 210.111 206.02 210.284C206.204 210.579 206.36 210.89 206.486 211.215L210.776 221.094H211.089L215.312 211.232C215.482 210.782 215.745 210.374 216.085 210.034C216.339 209.836 216.642 209.709 216.961 209.668V209.372H213.255Z" fill="white"/>
<path d="M224.453 209.111C223.02 209.086 221.634 209.622 220.592 210.606C219.353 211.755 218.733 213.239 218.734 215.059C218.734 216.837 219.271 218.287 220.344 219.41C220.86 219.946 221.48 220.371 222.166 220.66C222.852 220.95 223.589 221.097 224.333 221.093C225.078 221.089 225.813 220.934 226.496 220.638C227.179 220.341 227.794 219.909 228.305 219.368C229.402 218.218 229.951 216.773 229.952 215.033C229.952 213.343 229.407 211.933 228.318 210.804C227.228 209.675 225.94 209.11 224.453 209.111ZM227.407 218.76C227.131 219.186 226.762 219.543 226.328 219.806C225.893 220.069 225.406 220.23 224.9 220.278C223.899 220.394 223.05 220.12 222.355 219.454C221.447 218.577 220.889 217.239 220.682 215.441C220.478 213.687 220.706 212.31 221.368 211.31C221.899 210.508 222.673 210.047 223.691 209.93C224.777 209.803 225.67 210.073 226.371 210.738C227.245 211.58 227.791 212.941 228.009 214.821C228.21 216.56 228.01 217.873 227.407 218.76Z" fill="white"/>
<path d="M165.428 209.372H161.792V209.685H162.178C162.343 209.673 162.509 209.701 162.662 209.765C162.815 209.83 162.95 209.93 163.057 210.056C163.198 210.236 163.269 210.685 163.269 211.4V215.764C163.269 216.932 163.172 217.76 162.977 218.249C162.761 218.761 162.378 219.185 161.89 219.452C161.586 219.632 161.254 219.761 160.908 219.835C160.604 219.894 160.296 219.923 159.986 219.922C159.476 219.938 158.969 219.835 158.505 219.621C158.137 219.451 157.818 219.189 157.579 218.861C157.336 218.47 157.184 218.03 157.135 217.572C157.059 217.087 157.019 216.597 157.013 216.105V211.4C157.013 210.759 157.084 210.338 157.225 210.136C157.427 209.838 157.765 209.689 158.238 209.689H158.677V209.376H153.73V209.689H154.161C154.595 209.689 154.909 209.799 155.103 210.019C155.298 210.238 155.394 210.701 155.394 211.404V215.883C155.394 217.263 155.485 218.205 155.665 218.706C155.923 219.423 156.406 220.036 157.041 220.455C157.69 220.888 158.638 221.105 159.888 221.106H159.995C160.229 221.107 160.463 221.093 160.696 221.066C161.504 220.982 162.169 220.769 162.69 220.426C163.377 219.972 163.839 219.428 164.074 218.795C164.31 218.161 164.427 217.269 164.427 216.12V211.462C164.427 210.826 164.488 210.42 164.609 210.245C164.723 210.065 164.881 209.919 165.07 209.82C165.258 209.722 165.469 209.675 165.681 209.683H166.124V209.37L165.428 209.372Z" fill="white"/>
<path d="M147.816 213.979C146.653 213.593 145.061 212.747 145.057 211.821C145.053 210.895 145.618 209.41 147.955 209.81C149.665 210.102 150.152 211.651 150.175 212.757H150.583L150.46 209.309H150.112L149.914 209.542C149.193 209.32 147.193 208.711 145.732 209.301C145.3 209.476 143.612 210.151 143.612 212.13C143.612 214.109 144.382 215.171 146.893 216.037C149.405 216.903 149.709 218.071 149.73 218.563C149.751 219.056 149.082 220.466 147.442 220.444C146.564 220.428 145.724 220.083 145.089 219.476C144.454 218.87 144.07 218.047 144.013 217.171H143.61L143.73 221.115H144.082C144.082 221.115 144.315 220.844 144.308 220.849C146.073 221.184 147.63 221.498 149.48 220.684C150.006 220.423 150.448 220.021 150.756 219.522C151.065 219.022 151.227 218.447 151.226 217.86C151.233 215.804 149.926 214.681 147.816 213.979Z" fill="white"/>
</g>
</g>
</g>
<defs>
<clipPath id="clip0_39_238">
<rect width="118.064" height="80.6" fill="white" transform="translate(141.463 161.438)"/>
</clipPath>
<clipPath id="clip1_39_238">
<rect width="104.8" height="71.19" fill="white" transform="translate(141.463 161.438)"/>
</clipPath>
<clipPath id="clip2_39_238">
<rect width="104.8" height="71.1792" fill="white" transform="translate(141.463 161.444)"/>
</clipPath>
</defs>
</svg>
