<svg width="356" height="356" viewBox="0 0 356 356" fill="none" xmlns="http://www.w3.org/2000/svg">
<g clip-path="url(#clip0_39_798)">
<g clip-path="url(#clip1_39_798)">
<g clip-path="url(#clip2_39_798)">
<path fill-rule="evenodd" clip-rule="evenodd" d="M218.468 172.118H227.535V159.428L218.468 172.118ZM236.5 144.948V172.118H240.851V181.27H236.514V188.14H227.535V181.27H211.297C212.037 180.877 212.73 180.401 213.363 179.853C215.703 177.811 216.939 174.947 216.939 171.569C216.939 167.631 215.339 165.232 213.295 163.674L228.097 144.948H236.5ZM214.466 152.521H214.109V151.296H213.653V150.987H214.925V151.296H214.466V152.521ZM215.998 152.156L215.57 151.482L215.572 152.521H215.242V150.979H215.61L216.017 151.628L216.421 150.979H216.779V152.521H216.451V151.482L216.025 152.156H215.998ZM140.435 154.779C140.435 157.33 143.168 158.173 146.331 159.147V159.158C151.173 160.648 156.66 162.338 156.66 170.079C156.66 173.77 155.285 176.81 152.683 178.868C150.311 180.748 146.927 181.784 143.132 181.784C141.909 181.783 140.689 181.68 139.483 181.476C136.374 180.889 133.164 179.363 129.301 176.183L133.698 169.857C133.735 169.891 133.774 169.929 133.816 169.969C134.974 171.077 138.242 174.203 142.761 174.203C144.743 174.203 147.884 173.324 147.884 170.712C147.884 168.213 145.149 167.328 141.98 166.319L141.979 166.319C137.143 164.772 131.663 163.019 131.663 155.477C131.663 148.445 138.269 144.659 144.504 144.659C148.401 144.695 152.186 145.964 155.315 148.283L155.616 148.51L151.167 154.141L150.875 153.906C149.11 152.461 147.483 151.563 144.772 151.563C143.021 151.563 140.435 152.586 140.435 154.779ZM202.644 159.404C202.644 160.881 204.252 161.446 206.876 162.257H206.854C210.522 163.385 215.529 164.927 215.529 171.555C215.529 177.6 211.067 181.505 204.143 181.505C201.461 181.536 198.81 180.92 196.417 179.709L196.347 179.677L196.707 181.256H188.171L186.791 170.471L184.758 181.256H177.167L175.245 170.557L173.597 181.256H165.416L171.041 147.826H177.983L181.09 163.371L183.934 151.101H191.02L195.539 175.404L198.404 171.758L198.676 172.083C199.909 173.513 201.693 174.268 203.826 174.268C204.943 174.268 207.25 173.727 207.25 172.058C207.25 170.606 205.637 170.019 203.008 169.175C199.353 168.012 194.354 166.414 194.354 159.948C194.354 153.96 199.947 150.714 205.211 150.714C208.659 150.739 211.996 151.934 214.672 154.103L214.944 154.322L210.606 159.826L210.335 159.585C208.738 158.195 207.543 157.489 205.439 157.489C204.298 157.489 202.644 158.173 202.644 159.404ZM165.061 181.256V151.106H156.47V163.78C157.44 165.37 158.048 167.407 158.048 170.068C158.085 172.319 157.542 174.542 156.47 176.524V181.256H165.061ZM169.607 148.994C168.956 149.514 168.152 149.808 167.319 149.833H167.324C166.974 149.845 166.624 149.786 166.298 149.658C165.971 149.531 165.675 149.337 165.427 149.09C165.179 148.843 164.984 148.547 164.855 148.222C164.726 147.896 164.666 147.548 164.679 147.198C164.679 145.678 165.763 144.567 167.389 144.567C168.392 144.567 169.162 145.043 169.797 146.033L166.544 148.123C166.777 148.327 167.077 148.438 167.386 148.434C167.906 148.388 168.401 148.191 168.81 147.869L169.607 148.994ZM167.988 145.995C167.816 145.895 167.621 145.842 167.422 145.841C167.259 145.835 167.097 145.863 166.945 145.922C166.794 145.982 166.657 146.072 166.542 146.187C166.426 146.302 166.337 146.439 166.277 146.591C166.218 146.742 166.19 146.904 166.196 147.066V147.144L167.988 145.995ZM161.542 149.778H160.073L160.065 142.836H161.395V145.192C161.568 144.99 161.784 144.828 162.026 144.717C162.267 144.606 162.531 144.55 162.797 144.551C163.702 144.551 164.315 145.129 164.315 146.114V149.778H162.835V146.571C162.835 146.087 162.67 145.854 162.293 145.854C161.832 145.854 161.542 146.165 161.542 146.736V149.778ZM156.502 149.778H158.145L158.148 144.526H159.734V142.977H155.196L154.748 144.524H156.502V149.778ZM132.797 165.059L128.507 165.045L121.615 181.593L127.178 164.861L123.88 164.413L120.582 163.96L121.453 181.572L119.252 163.782L115.116 162.644L119.405 162.657L126.298 146.108L120.735 162.841L124.034 163.29L127.331 163.743L126.46 146.13L128.661 163.921L132.797 165.059ZM121.394 182.614L133.023 165.09L126.52 145.088L114.891 162.612L121.394 182.614Z" fill="white"/>
<path fill-rule="evenodd" clip-rule="evenodd" d="M115.342 187.886L241.031 191.658V210.736L123.736 213.114L115.342 187.886ZM151.186 197.051V203.487H149.805V200.801H147.357V203.487H145.976V197.051H147.357V199.606H149.801V197.051H151.183H151.186ZM156.916 197.158C156.5 196.982 156.061 196.896 155.593 196.896C155.119 196.896 154.676 196.982 154.26 197.158C153.845 197.334 153.481 197.572 153.177 197.876C152.872 198.18 152.626 198.536 152.45 198.943C152.273 199.351 152.183 199.789 152.183 200.252C152.183 200.715 152.27 201.153 152.45 201.561C152.626 201.968 152.869 202.324 153.177 202.628C153.485 202.932 153.845 203.17 154.26 203.346C154.676 203.522 155.126 203.608 155.593 203.608C156.061 203.608 156.5 203.522 156.916 203.346C157.331 203.17 157.691 202.932 158.003 202.628C158.314 202.324 158.557 201.968 158.737 201.561C158.913 201.153 159.003 200.715 159.003 200.252C159.003 199.789 158.913 199.351 158.737 198.943C158.557 198.536 158.311 198.18 158.003 197.876C157.695 197.572 157.331 197.334 156.916 197.158ZM156.358 202.12C156.119 202.224 155.863 202.276 155.593 202.276C155.316 202.276 155.057 202.224 154.818 202.12C154.579 202.017 154.368 201.872 154.191 201.689C154.015 201.505 153.873 201.291 153.769 201.046C153.665 200.801 153.613 200.538 153.613 200.256C153.613 199.972 153.665 199.71 153.769 199.465C153.873 199.219 154.011 199.005 154.191 198.823C154.368 198.64 154.579 198.495 154.818 198.391C155.06 198.287 155.323 198.236 155.593 198.236C155.863 198.236 156.119 198.287 156.358 198.391C156.597 198.495 156.805 198.64 156.988 198.823C157.172 199.005 157.314 199.219 157.418 199.465C157.522 199.71 157.573 199.972 157.573 200.256C157.573 200.538 157.522 200.801 157.418 201.046C157.314 201.291 157.168 201.505 156.988 201.689C156.808 201.872 156.597 202.017 156.358 202.12ZM161.776 200.96H161.354V203.487H159.969V197.051H161.998C162.282 197.051 162.565 197.082 162.85 197.148C163.137 197.213 163.393 197.324 163.625 197.483C163.857 197.642 164.04 197.852 164.182 198.118C164.324 198.381 164.394 198.715 164.394 199.119C164.394 199.327 164.363 199.517 164.297 199.686C164.231 199.855 164.144 200.003 164.03 200.135C163.916 200.266 163.784 200.38 163.629 200.48C163.476 200.577 163.313 200.66 163.14 200.729L165.041 203.487H163.362L161.776 200.96ZM161.354 200.042H161.86C161.953 200.042 162.064 200.028 162.192 200C162.32 199.972 162.441 199.924 162.555 199.858C162.67 199.793 162.766 199.696 162.846 199.579C162.926 199.458 162.967 199.306 162.967 199.123C162.967 198.94 162.926 198.795 162.846 198.691C162.766 198.588 162.67 198.508 162.555 198.456C162.441 198.405 162.32 198.374 162.192 198.36C162.064 198.346 161.953 198.343 161.86 198.343H161.354V200.042ZM168.68 198.225C168.915 198.308 169.126 198.45 169.309 198.653L169.313 198.65L170.123 197.628C169.974 197.49 169.798 197.369 169.597 197.258C169.417 197.169 169.202 197.082 168.946 197.006C168.69 196.93 168.392 196.892 168.056 196.892C167.721 196.892 167.409 196.944 167.122 197.048C166.838 197.151 166.588 197.296 166.381 197.476C166.173 197.655 166.01 197.866 165.889 198.104C165.768 198.346 165.709 198.601 165.709 198.878C165.709 199.154 165.747 199.385 165.823 199.572C165.903 199.758 166.01 199.92 166.152 200.055C166.294 200.19 166.464 200.304 166.665 200.404C166.865 200.504 167.087 200.597 167.333 200.691C167.585 200.787 167.797 200.867 167.973 200.929C168.15 200.991 168.292 201.05 168.403 201.108C168.513 201.167 168.593 201.236 168.641 201.319C168.69 201.402 168.714 201.506 168.714 201.647C168.714 201.789 168.676 201.899 168.6 201.979C168.524 202.058 168.434 202.123 168.337 202.168C168.236 202.213 168.139 202.241 168.046 202.255C167.949 202.265 167.88 202.272 167.838 202.272H167.63C167.534 202.272 167.423 202.258 167.298 202.231C167.17 202.203 167.035 202.154 166.886 202.082C166.738 202.01 166.592 201.906 166.443 201.764L165.577 202.869C165.737 203.025 165.931 203.156 166.159 203.267C166.353 203.363 166.595 203.453 166.886 203.533C167.177 203.612 167.513 203.653 167.901 203.653C168.177 203.653 168.458 203.612 168.745 203.533C169.033 203.453 169.289 203.325 169.521 203.146C169.753 202.966 169.94 202.735 170.088 202.455C170.237 202.175 170.31 201.83 170.31 201.426C170.31 201.188 170.251 200.957 170.133 200.729C170.03 200.538 169.864 200.342 169.632 200.142C169.4 199.941 169.057 199.772 168.604 199.637L168.431 199.586L168.43 199.585C168.31 199.549 168.195 199.515 168.088 199.482C167.928 199.434 167.79 199.378 167.669 199.316C167.548 199.254 167.451 199.182 167.381 199.095C167.309 199.009 167.274 198.905 167.274 198.781C167.274 198.591 167.343 198.439 167.489 198.325C167.634 198.211 167.807 198.146 168.015 198.128C168.222 198.111 168.444 198.142 168.68 198.225ZM175.368 202.203L174.997 203.491H171.311V197.051H174.859L175.229 198.339H172.695V199.579H174.447V200.867H172.695V202.199H175.368V202.203ZM180.668 200.96H181.091L182.676 203.487H184.355L182.455 200.729C182.628 200.66 182.791 200.577 182.943 200.48C183.099 200.38 183.23 200.266 183.344 200.135C183.459 200.003 183.545 199.855 183.611 199.686C183.677 199.517 183.708 199.327 183.708 199.119C183.708 198.715 183.639 198.381 183.497 198.118C183.355 197.852 183.171 197.642 182.939 197.483C182.707 197.324 182.451 197.213 182.164 197.148C181.88 197.082 181.596 197.051 181.312 197.051H179.284V203.487H180.668V200.96ZM181.174 200.042H180.668V198.343H181.174C181.267 198.343 181.378 198.346 181.506 198.36C181.634 198.374 181.755 198.405 181.87 198.456C181.984 198.508 182.081 198.588 182.16 198.691C182.24 198.795 182.282 198.94 182.282 199.123C182.282 199.306 182.24 199.458 182.16 199.579C182.081 199.696 181.984 199.793 181.87 199.858C181.755 199.924 181.634 199.972 181.506 200C181.378 200.028 181.267 200.042 181.174 200.042ZM188.974 203.487L188.569 202.199H186.502L186.097 203.487H184.612L186.855 197.051H188.219L190.459 203.487H188.974ZM186.855 201.098H188.219L187.537 198.954L186.855 201.098ZM196.94 203.487V197.051H195.555V201.457L192.56 197.051H191.175V203.487H192.56V199.147L195.427 203.487H196.94ZM203.32 202.718C203.033 203 202.701 203.222 202.33 203.38C201.959 203.539 201.562 203.619 201.135 203.619C200.71 203.619 200.274 203.536 199.882 203.37C199.488 203.205 199.145 202.973 198.854 202.676C198.564 202.379 198.332 202.023 198.162 201.612C197.992 201.202 197.909 200.753 197.909 200.259C197.909 199.765 197.992 199.358 198.162 198.95C198.332 198.543 198.56 198.187 198.854 197.883C199.145 197.58 199.488 197.341 199.882 197.165C200.277 196.989 200.693 196.902 201.135 196.902C201.579 196.902 201.956 196.982 202.33 197.141C202.704 197.3 203.029 197.521 203.313 197.804L202.344 198.688C202.185 198.553 202.004 198.45 201.811 198.374C201.617 198.298 201.409 198.263 201.194 198.263C200.942 198.263 200.703 198.318 200.481 198.426C200.256 198.532 200.062 198.677 199.896 198.86C199.73 199.044 199.598 199.258 199.501 199.496C199.401 199.734 199.353 199.983 199.353 200.242C199.353 200.525 199.401 200.784 199.501 201.022C199.598 201.26 199.734 201.471 199.896 201.647C200.062 201.826 200.256 201.965 200.481 202.065C200.706 202.165 200.942 202.217 201.194 202.217C201.399 202.217 201.589 202.186 201.772 202.12C201.953 202.054 202.119 201.965 202.264 201.847L203.324 202.711L203.32 202.718ZM209.496 203.487V197.051H208.115V199.606H205.671V197.051H204.289V203.487H205.671V200.801H208.115V203.487H209.496Z" fill="white"/>
</g>
</g>
</g>
<defs>
<clipPath id="clip0_39_798">
<rect width="126.14" height="71.19" fill="white" transform="translate(114.891 142.38)"/>
</clipPath>
<clipPath id="clip1_39_798">
<rect width="126.14" height="71.19" fill="white" transform="translate(114.891 142.38)"/>
</clipPath>
<clipPath id="clip2_39_798">
<rect width="126.14" height="71.179" fill="white" transform="translate(114.891 142.386)"/>
</clipPath>
</defs>
</svg>
